<svg width="450" height="74" viewBox="0 0 450 74" fill="none" xmlns="http://www.w3.org/2000/svg">
<rect width="444.5" height="61.5927" rx="10" transform="translate(5.36963)" fill="#E9E9E9"/>
<path d="M24.7173 12.4179L5.36961 0C1.73159 11.0933 -3.53588 27.8546 3.36941 23.8252C12.8186 18.3113 17.6066 13.4113 24.7173 12.4179Z" transform="translate(0 49.1748)" fill="#E9E9E9"/>
<path d="M45.423 33L40.329 26.628L45.099 20.994H41.949L37.701 26.358V20.994H35.145V33H37.701V29.31L38.637 28.194L42.273 33H45.423ZM53.7943 33V27.384C53.7943 24.882 51.9763 24.09 49.9963 24.09C48.6283 24.09 47.2603 24.522 46.1983 25.458L47.0623 26.988C47.8003 26.304 48.6643 25.962 49.6003 25.962C50.7523 25.962 51.5083 26.538 51.5083 27.42V28.59C50.9323 27.906 49.9063 27.528 48.7543 27.528C47.3683 27.528 45.7303 28.302 45.7303 30.336C45.7303 32.28 47.3683 33.216 48.7543 33.216C49.8883 33.216 50.9143 32.802 51.5083 32.1V33H53.7943ZM49.6723 31.668C48.7723 31.668 48.0343 31.2 48.0343 30.39C48.0343 29.544 48.7723 29.076 49.6723 29.076C50.4103 29.076 51.1303 29.328 51.5083 29.832V30.912C51.1303 31.416 50.4103 31.668 49.6723 31.668ZM64.5577 33L61.0117 28.248L64.4497 24.306H61.6417L58.3477 28.176V24.306H56.0617V33H58.3477V30.768L59.3917 29.652L61.6957 33H64.5577ZM67.8905 33L71.5805 27.546V33H73.8665V24.306H71.5625L67.9805 29.562V24.306H65.6945V33H67.8905ZM80.222 33.216C81.572 33.216 82.94 32.802 83.804 32.01L82.796 30.534C82.238 31.074 81.212 31.398 80.474 31.398C78.998 31.398 78.116 30.48 77.972 29.382H84.434V28.878C84.434 26.034 82.67 24.09 80.078 24.09C77.432 24.09 75.578 26.124 75.578 28.644C75.578 31.434 77.576 33.216 80.222 33.216ZM82.22 27.834H77.936C78.044 26.97 78.656 25.908 80.078 25.908C81.59 25.908 82.166 27.006 82.22 27.834ZM89.8806 35.214H92.1846V33H97.5306V35.214H99.8166V31.002H98.8626V24.306H91.8246L91.2666 28.518C90.9966 30.624 90.5826 30.966 89.8806 31.092V35.214ZM93.8226 26.304H96.5766V31.002H92.5446C93.0846 30.498 93.4266 29.724 93.5526 28.662L93.8226 26.304ZM105.287 33.216C108.167 33.216 109.895 31.128 109.895 28.644C109.895 26.178 108.167 24.09 105.287 24.09C102.425 24.09 100.697 26.178 100.697 28.644C100.697 31.128 102.425 33.216 105.287 33.216ZM105.287 31.182C103.865 31.182 103.073 30.012 103.073 28.644C103.073 27.294 103.865 26.124 105.287 26.124C106.709 26.124 107.519 27.294 107.519 28.644C107.519 30.012 106.709 31.182 105.287 31.182ZM120.087 33L116.541 28.248L119.979 24.306H117.171L113.877 28.176V24.306H111.591V33H113.877V30.768L114.921 29.652L117.225 33H120.087ZM120.918 36.402C121.206 36.474 121.782 36.528 122.052 36.528C123.546 36.492 124.698 36.06 125.346 34.422L129.432 24.306H126.966L124.698 30.354L122.43 24.306H119.982L123.51 33.126L123.186 33.864C122.97 34.332 122.574 34.494 121.98 34.494C121.764 34.494 121.458 34.44 121.26 34.35L120.918 36.402ZM140.73 33V24.306H137.706L135.6 29.49L133.458 24.306H130.452V33H132.738V27.348L135.078 33H136.122L138.444 27.348V33H140.73ZM147.089 33.216C148.439 33.216 149.807 32.802 150.671 32.01L149.663 30.534C149.105 31.074 148.079 31.398 147.341 31.398C145.865 31.398 144.983 30.48 144.839 29.382H151.301V28.878C151.301 26.034 149.537 24.09 146.945 24.09C144.299 24.09 142.445 26.124 142.445 28.644C142.445 31.434 144.443 33.216 147.089 33.216ZM149.087 27.834H144.803C144.911 26.97 145.523 25.908 146.945 25.908C148.457 25.908 149.033 27.006 149.087 27.834ZM155.238 33V29.526H158.838V33H161.124V24.306H158.838V27.528H155.238V24.306H152.952V33H155.238ZM167.3 33V26.304H169.73V24.306H162.566V26.304H164.996V33H167.3ZM171.163 24.306V33H176.419C178.363 33 179.443 31.686 179.443 30.138C179.443 28.608 178.435 27.294 176.419 27.294H173.449V24.306H171.163ZM176.077 29.202C176.725 29.202 177.103 29.598 177.103 30.138C177.103 30.678 176.725 31.074 176.077 31.074H173.449V29.202H176.077ZM182.881 33V24.306H180.577V33H182.881ZM192.029 33V29.526H195.629V33H197.915V24.306H195.629V27.528H192.029V24.306H189.743V33H192.029ZM204.271 33.216C205.621 33.216 206.989 32.802 207.853 32.01L206.845 30.534C206.287 31.074 205.261 31.398 204.523 31.398C203.047 31.398 202.165 30.48 202.021 29.382H208.483V28.878C208.483 26.034 206.719 24.09 204.127 24.09C201.481 24.09 199.627 26.124 199.627 28.644C199.627 31.434 201.625 33.216 204.271 33.216ZM206.269 27.834H201.985C202.093 26.97 202.705 25.908 204.127 25.908C205.639 25.908 206.215 27.006 206.269 27.834ZM214.166 33.216C217.046 33.216 218.774 31.128 218.774 28.644C218.774 26.178 217.046 24.09 214.166 24.09C211.304 24.09 209.576 26.178 209.576 28.644C209.576 31.128 211.304 33.216 214.166 33.216ZM214.166 31.182C212.744 31.182 211.952 30.012 211.952 28.644C211.952 27.294 212.744 26.124 214.166 26.124C215.588 26.124 216.398 27.294 216.398 28.644C216.398 30.012 215.588 31.182 214.166 31.182ZM224.502 31.182C223.08 31.182 222.288 30.012 222.288 28.608C222.288 27.294 223.08 26.124 224.502 26.124C225.924 26.124 226.734 27.294 226.734 28.608C226.734 30.012 225.924 31.182 224.502 31.182ZM224.502 33.216C227.4 33.216 229.092 31.074 229.092 28.626C229.092 26.214 227.472 24.09 224.988 24.09C223.782 24.09 222.72 24.594 222.018 25.512C222.252 24.504 223.098 23.604 225.15 23.334C226.572 23.154 228.768 22.686 228.768 20.994H226.392C226.392 21.3 225.888 21.516 224.43 21.732C221.442 22.128 219.912 24.018 219.912 28.248C219.912 31.074 221.604 33.216 224.502 33.216ZM238.797 33L235.683 28.536L238.599 24.306H236.043L234.261 26.988L232.461 24.306H229.905L232.803 28.536L229.725 33H232.263L234.261 30.066L236.241 33H238.797ZM243.346 33.216C246.226 33.216 247.954 31.128 247.954 28.644C247.954 26.178 246.226 24.09 243.346 24.09C240.484 24.09 238.756 26.178 238.756 28.644C238.756 31.128 240.484 33.216 243.346 33.216ZM243.346 31.182C241.924 31.182 241.132 30.012 241.132 28.644C241.132 27.294 241.924 26.124 243.346 26.124C244.768 26.124 245.578 27.294 245.578 28.644C245.578 30.012 244.768 31.182 243.346 31.182ZM248.84 35.214H251.144V33H256.49V35.214H258.776V31.002H257.822V24.306H250.784L250.226 28.518C249.956 30.624 249.542 30.966 248.84 31.092V35.214ZM252.782 26.304H255.536V31.002H251.504C252.044 30.498 252.386 29.724 252.512 28.662L252.782 26.304ZM262.41 33L266.1 27.546V33H268.386V24.306H266.082L262.5 29.562V24.306H260.214V33H262.41ZM280.933 33V24.306H277.909L275.803 29.49L273.661 24.306H270.655V33H272.941V27.348L275.281 33H276.325L278.647 27.348V33H280.933ZM287.238 33.216C290.118 33.216 291.846 31.128 291.846 28.644C291.846 26.178 290.118 24.09 287.238 24.09C284.376 24.09 282.648 26.178 282.648 28.644C282.648 31.128 284.376 33.216 287.238 33.216ZM287.238 31.182C285.816 31.182 285.024 30.012 285.024 28.644C285.024 27.294 285.816 26.124 287.238 26.124C288.66 26.124 289.47 27.294 289.47 28.644C289.47 30.012 288.66 31.182 287.238 31.182ZM306.32 33V24.306H298.148V33H300.434V26.304H304.034V33H306.32ZM312.621 33.216C315.501 33.216 317.229 31.128 317.229 28.644C317.229 26.178 315.501 24.09 312.621 24.09C309.759 24.09 308.031 26.178 308.031 28.644C308.031 31.128 309.759 33.216 312.621 33.216ZM312.621 31.182C311.199 31.182 310.407 30.012 310.407 28.644C310.407 27.294 311.199 26.124 312.621 26.124C314.043 26.124 314.853 27.294 314.853 28.644C314.853 30.012 314.043 31.182 312.621 31.182ZM318.115 35.214H320.419V33H325.765V35.214H328.051V31.002H327.097V24.306H320.059L319.501 28.518C319.231 30.624 318.817 30.966 318.115 31.092V35.214ZM322.057 26.304H324.811V31.002H320.779C321.319 30.498 321.661 29.724 321.787 28.662L322.057 26.304ZM336.203 24.306H329.489V33H331.775V26.304H336.203V24.306ZM341.695 33.216C344.575 33.216 346.303 31.128 346.303 28.644C346.303 26.178 344.575 24.09 341.695 24.09C338.833 24.09 337.105 26.178 337.105 28.644C337.105 31.128 338.833 33.216 341.695 33.216ZM341.695 31.182C340.273 31.182 339.481 30.012 339.481 28.644C339.481 27.294 340.273 26.124 341.695 26.124C343.117 26.124 343.927 27.294 343.927 28.644C343.927 30.012 343.117 31.182 341.695 31.182ZM351.905 33V26.304H354.335V24.306H347.171V26.304H349.601V33H351.905ZM359.801 33.216C362.681 33.216 364.409 31.128 364.409 28.644C364.409 26.178 362.681 24.09 359.801 24.09C356.939 24.09 355.211 26.178 355.211 28.644C355.211 31.128 356.939 33.216 359.801 33.216ZM359.801 31.182C358.379 31.182 357.587 30.012 357.587 28.644C357.587 27.294 358.379 26.124 359.801 26.124C361.223 26.124 362.033 27.294 362.033 28.644C362.033 30.012 361.223 31.182 359.801 31.182ZM371.775 33C373.521 33 374.457 31.956 374.457 30.642C374.457 29.598 373.755 28.734 372.801 28.518C373.611 28.284 374.277 27.582 374.277 26.538C374.277 25.368 373.377 24.306 371.613 24.306H366.105V33H371.775ZM371.217 31.128H368.391V29.508H371.217C371.793 29.508 372.117 29.886 372.117 30.318C372.117 30.822 371.775 31.128 371.217 31.128ZM371.145 27.636H368.391V26.178H371.145C371.649 26.178 371.955 26.484 371.955 26.916C371.955 27.312 371.649 27.636 371.145 27.636ZM378.848 33L382.538 27.546V33H384.824V24.306H382.52L378.938 29.562V24.306H376.652V33H378.848ZM390.999 33V26.304H393.429V24.306H386.265V26.304H388.695V33H390.999ZM394.863 24.306V33H400.119C402.063 33 403.143 31.686 403.143 30.138C403.143 28.608 402.135 27.294 400.119 27.294H397.149V24.306H394.863ZM399.777 29.202C400.425 29.202 400.803 29.598 400.803 30.138C400.803 30.678 400.425 31.074 399.777 31.074H397.149V29.202H399.777ZM406.038 29.328L408 28.752C407.82 28.59 407.676 28.284 407.676 27.996C407.676 26.484 410.682 26.286 410.682 23.658C410.682 21.984 409.26 20.814 406.938 20.814C405.39 20.814 403.95 21.444 402.996 22.56L404.454 24.198C405.012 23.532 405.768 23.082 406.668 23.082C407.658 23.082 408.072 23.55 408.072 24.108C408.072 25.35 405.444 25.602 405.444 27.744C405.444 28.374 405.66 28.914 406.038 29.328ZM406.902 33.198C407.694 33.198 408.36 32.532 408.36 31.74C408.36 30.948 407.694 30.282 406.902 30.282C406.11 30.282 405.444 30.948 405.444 31.74C405.444 32.532 406.11 33.198 406.902 33.198Z" transform="translate(4.86914 2)" fill="black"/>
</svg>
