<svg width="450" height="74" viewBox="0 0 450 74" fill="none" xmlns="http://www.w3.org/2000/svg">
<rect width="444.5" height="61.5927" rx="10" transform="translate(5.36963)" fill="#E9E9E9"/>
<path d="M24.7173 12.4179L5.36961 0C1.73159 11.0933 -3.53588 27.8546 3.36941 23.8252C12.8186 18.3113 17.6066 13.4113 24.7173 12.4179Z" transform="translate(0 49.1748)" fill="#E9E9E9"/>
<path d="M105.813 33L100.719 26.628L105.489 20.994H102.339L98.0907 26.358V20.994H95.5347V33H98.0907V29.31L99.0267 28.194L102.663 33H105.813ZM110.464 33.216C113.344 33.216 115.072 31.128 115.072 28.644C115.072 26.178 113.344 24.09 110.464 24.09C107.602 24.09 105.874 26.178 105.874 28.644C105.874 31.128 107.602 33.216 110.464 33.216ZM110.464 31.182C109.042 31.182 108.25 30.012 108.25 28.644C108.25 27.294 109.042 26.124 110.464 26.124C111.886 26.124 112.696 27.294 112.696 28.644C112.696 30.012 111.886 31.182 110.464 31.182ZM127.046 33V24.306H124.022L121.916 29.49L119.774 24.306H116.768V33H119.054V27.348L121.394 33H122.438L124.76 27.348V33H127.046ZM129.013 36.402C129.301 36.474 129.877 36.528 130.147 36.528C131.641 36.492 132.793 36.06 133.441 34.422L137.527 24.306H135.061L132.793 30.354L130.525 24.306H128.077L131.605 33.126L131.281 33.864C131.065 34.332 130.669 34.494 130.075 34.494C129.859 34.494 129.553 34.44 129.355 34.35L129.013 36.402ZM145.439 33V29.526H149.039V33H151.325V24.306H149.039V27.528H145.439V24.306H143.153V33H145.439ZM153.288 36.402C153.576 36.474 154.152 36.528 154.422 36.528C155.916 36.492 157.068 36.06 157.716 34.422L161.802 24.306H159.336L157.068 30.354L154.8 24.306H152.352L155.88 33.126L155.556 33.864C155.34 34.332 154.944 34.494 154.35 34.494C154.134 34.494 153.828 34.44 153.63 34.35L153.288 36.402ZM164.55 33L166.872 29.652L167.286 30.102V33H169.59V30.102L170.004 29.652L172.326 33H175.17L171.642 28.248L175.062 24.306H172.254L169.59 27.456V24.306H167.286V27.456L164.622 24.306H161.814L165.234 28.248L161.706 33H164.55ZM178.608 33V29.526H182.208V33H184.494V24.306H182.208V27.528H178.608V24.306H176.322V33H178.608ZM190.796 33.216C193.676 33.216 195.404 31.128 195.404 28.644C195.404 26.178 193.676 24.09 190.796 24.09C187.934 24.09 186.206 26.178 186.206 28.644C186.206 31.128 187.934 33.216 190.796 33.216ZM190.796 31.182C189.374 31.182 188.582 30.012 188.582 28.644C188.582 27.294 189.374 26.124 190.796 26.124C192.218 26.124 193.028 27.294 193.028 28.644C193.028 30.012 192.218 31.182 190.796 31.182ZM205.755 33.216C207.537 33.216 208.617 32.442 209.193 31.632L207.699 30.246C207.285 30.822 206.655 31.182 205.863 31.182C204.477 31.182 203.505 30.156 203.505 28.644C203.505 27.132 204.477 26.124 205.863 26.124C206.655 26.124 207.285 26.448 207.699 27.06L209.193 25.656C208.617 24.864 207.537 24.09 205.755 24.09C203.073 24.09 201.147 25.98 201.147 28.644C201.147 31.326 203.073 33.216 205.755 33.216ZM209.878 35.214H212.182V33H217.528V35.214H219.814V31.002H218.86V24.306H211.822L211.264 28.518C210.994 30.624 210.58 30.966 209.878 31.092V35.214ZM213.82 26.304H216.574V31.002H212.542C213.082 30.498 213.424 29.724 213.55 28.662L213.82 26.304ZM228.758 33V27.384C228.758 24.882 226.94 24.09 224.96 24.09C223.592 24.09 222.224 24.522 221.162 25.458L222.026 26.988C222.764 26.304 223.628 25.962 224.564 25.962C225.716 25.962 226.472 26.538 226.472 27.42V28.59C225.896 27.906 224.87 27.528 223.718 27.528C222.332 27.528 220.694 28.302 220.694 30.336C220.694 32.28 222.332 33.216 223.718 33.216C224.852 33.216 225.878 32.802 226.472 32.1V33H228.758ZM224.636 31.668C223.736 31.668 222.998 31.2 222.998 30.39C222.998 29.544 223.736 29.076 224.636 29.076C225.374 29.076 226.094 29.328 226.472 29.832V30.912C226.094 31.416 225.374 31.668 224.636 31.668ZM236.696 33C238.442 33 239.378 31.956 239.378 30.642C239.378 29.598 238.676 28.734 237.722 28.518C238.532 28.284 239.198 27.582 239.198 26.538C239.198 25.368 238.298 24.306 236.534 24.306H231.026V33H236.696ZM236.138 31.128H233.312V29.508H236.138C236.714 29.508 237.038 29.886 237.038 30.318C237.038 30.822 236.696 31.128 236.138 31.128ZM236.066 27.636H233.312V26.178H236.066C236.57 26.178 236.876 26.484 236.876 26.916C236.876 27.312 236.57 27.636 236.066 27.636ZM249.078 33V27.384C249.078 24.882 247.26 24.09 245.28 24.09C243.912 24.09 242.544 24.522 241.482 25.458L242.346 26.988C243.084 26.304 243.948 25.962 244.884 25.962C246.036 25.962 246.792 26.538 246.792 27.42V28.59C246.216 27.906 245.19 27.528 244.038 27.528C242.652 27.528 241.014 28.302 241.014 30.336C241.014 32.28 242.652 33.216 244.038 33.216C245.172 33.216 246.198 32.802 246.792 32.1V33H249.078ZM244.956 31.668C244.056 31.668 243.318 31.2 243.318 30.39C243.318 29.544 244.056 29.076 244.956 29.076C245.694 29.076 246.414 29.328 246.792 29.832V30.912C246.414 31.416 245.694 31.668 244.956 31.668ZM255.252 33V26.304H257.682V24.306H250.518V26.304H252.948V33H255.252ZM259.115 24.306V33H264.371C266.315 33 267.395 31.686 267.395 30.138C267.395 28.608 266.387 27.294 264.371 27.294H261.401V24.306H259.115ZM264.029 29.202C264.677 29.202 265.055 29.598 265.055 30.138C265.055 30.678 264.677 31.074 264.029 31.074H261.401V29.202H264.029ZM276.334 33.216C278.998 33.216 280.942 31.326 280.942 28.644C280.942 25.98 278.998 24.09 276.334 24.09C274.552 24.09 273.454 24.864 272.896 25.656L274.3 26.916C274.732 26.304 275.398 25.908 276.19 25.908C277.342 25.908 278.188 26.574 278.458 27.744H274.966V29.508H278.476C278.206 30.714 277.342 31.398 276.19 31.398C275.398 31.398 274.732 30.984 274.3 30.372L272.896 31.632C273.454 32.442 274.552 33.216 276.334 33.216ZM291.149 33L287.603 28.248L291.041 24.306H288.233L284.939 28.176V24.306H282.653V33H284.939V30.768L285.983 29.652L288.287 33H291.149ZM295.453 33.216C298.045 33.216 299.647 32.136 299.647 30.606C299.647 29.292 298.261 28.608 297.199 28.536C298.351 28.356 299.467 27.6 299.467 26.484C299.467 25.008 297.937 24.09 295.219 24.108C293.635 24.108 292.375 24.702 291.529 25.548L292.645 26.898C293.329 26.232 294.211 25.908 295.345 25.908C296.371 25.908 297.091 26.268 297.091 26.79C297.091 27.402 296.497 27.726 295.309 27.726H293.527V29.49H295.309C296.497 29.49 297.253 29.796 297.253 30.462C297.253 31.02 296.623 31.398 295.453 31.398C294.409 31.398 293.257 31.092 292.447 30.408L291.403 31.83C292.249 32.658 293.653 33.216 295.453 33.216ZM308.862 33V27.384C308.862 24.882 307.044 24.09 305.064 24.09C303.696 24.09 302.328 24.522 301.266 25.458L302.13 26.988C302.868 26.304 303.732 25.962 304.668 25.962C305.82 25.962 306.576 26.538 306.576 27.42V28.59C306 27.906 304.974 27.528 303.822 27.528C302.436 27.528 300.798 28.302 300.798 30.336C300.798 32.28 302.436 33.216 303.822 33.216C304.956 33.216 305.982 32.802 306.576 32.1V33H308.862ZM304.74 31.668C303.84 31.668 303.102 31.2 303.102 30.39C303.102 29.544 303.84 29.076 304.74 29.076C305.478 29.076 306.198 29.328 306.576 29.832V30.912C306.198 31.416 305.478 31.668 304.74 31.668ZM321.407 33V24.306H318.383L316.277 29.49L314.135 24.306H311.129V33H313.415V27.348L315.755 33H316.799L319.121 27.348V33H321.407ZM327.766 33.216C329.116 33.216 330.484 32.802 331.348 32.01L330.34 30.534C329.782 31.074 328.756 31.398 328.018 31.398C326.542 31.398 325.66 30.48 325.516 29.382H331.978V28.878C331.978 26.034 330.214 24.09 327.622 24.09C324.976 24.09 323.122 26.124 323.122 28.644C323.122 31.434 325.12 33.216 327.766 33.216ZM329.764 27.834H325.48C325.588 26.97 326.2 25.908 327.622 25.908C329.134 25.908 329.71 27.006 329.764 27.834ZM335.915 33V29.526H339.515V33H341.801V24.306H339.515V27.528H335.915V24.306H333.629V33H335.915ZM345.648 29.328L347.61 28.752C347.43 28.59 347.286 28.284 347.286 27.996C347.286 26.484 350.292 26.286 350.292 23.658C350.292 21.984 348.87 20.814 346.548 20.814C345 20.814 343.56 21.444 342.606 22.56L344.064 24.198C344.622 23.532 345.378 23.082 346.278 23.082C347.268 23.082 347.682 23.55 347.682 24.108C347.682 25.35 345.054 25.602 345.054 27.744C345.054 28.374 345.27 28.914 345.648 29.328ZM346.512 33.198C347.304 33.198 347.97 32.532 347.97 31.74C347.97 30.948 347.304 30.282 346.512 30.282C345.72 30.282 345.054 30.948 345.054 31.74C345.054 32.532 345.72 33.198 346.512 33.198Z" transform="translate(4.86914 2)" fill="black"/>
</svg>
