<svg width="450" height="74" viewBox="0 0 450 74" fill="none" xmlns="http://www.w3.org/2000/svg">
<rect width="444.5" height="61.5927" rx="10" transform="translate(5.36963)" fill="#E9E9E9"/>
<path d="M24.7173 12.4179L5.36961 0C1.73159 11.0933 -3.53588 27.8546 3.36941 23.8252C12.8186 18.3113 17.6066 13.4113 24.7173 12.4179Z" transform="translate(0 49.1748)" fill="#E9E9E9"/>
<path d="M93.3146 33L88.2206 26.628L92.9906 20.994H89.8406L85.5926 26.358V20.994H83.0366V33H85.5926V29.31L86.5286 28.194L90.1646 33H93.3146ZM97.9658 33.216C100.846 33.216 102.574 31.128 102.574 28.644C102.574 26.178 100.846 24.09 97.9658 24.09C95.1038 24.09 93.3758 26.178 93.3758 28.644C93.3758 31.128 95.1038 33.216 97.9658 33.216ZM97.9658 31.182C96.5438 31.182 95.7518 30.012 95.7518 28.644C95.7518 27.294 96.5438 26.124 97.9658 26.124C99.3878 26.124 100.198 27.294 100.198 28.644C100.198 30.012 99.3878 31.182 97.9658 31.182ZM114.548 33V24.306H111.524L109.418 29.49L107.276 24.306H104.27V33H106.556V27.348L108.896 33H109.94L112.262 27.348V33H114.548ZM116.515 36.402C116.803 36.474 117.379 36.528 117.649 36.528C119.143 36.492 120.295 36.06 120.943 34.422L125.029 24.306H122.563L120.295 30.354L118.027 24.306H115.579L119.107 33.126L118.783 33.864C118.567 34.332 118.171 34.494 117.577 34.494C117.361 34.494 117.055 34.44 116.857 34.35L116.515 36.402ZM132.941 33V29.526H136.541V33H138.827V24.306H136.541V27.528H132.941V24.306H130.655V33H132.941ZM145.182 33.216C146.532 33.216 147.9 32.802 148.764 32.01L147.756 30.534C147.198 31.074 146.172 31.398 145.434 31.398C143.958 31.398 143.076 30.48 142.932 29.382H149.394V28.878C149.394 26.034 147.63 24.09 145.038 24.09C142.392 24.09 140.538 26.124 140.538 28.644C140.538 31.434 142.536 33.216 145.182 33.216ZM147.18 27.834H142.896C143.004 26.97 143.616 25.908 145.038 25.908C146.55 25.908 147.126 27.006 147.18 27.834ZM157.937 33V29.526H161.537V33H163.823V24.306H161.537V27.528H157.937V24.306H155.651V33H157.937ZM165.786 36.402C166.074 36.474 166.65 36.528 166.92 36.528C168.414 36.492 169.566 36.06 170.214 34.422L174.3 24.306H171.834L169.566 30.354L167.298 24.306H164.85L168.378 33.126L168.054 33.864C167.838 34.332 167.442 34.494 166.848 34.494C166.632 34.494 166.326 34.44 166.128 34.35L165.786 36.402ZM177.049 33L179.371 29.652L179.785 30.102V33H182.089V30.102L182.503 29.652L184.825 33H187.669L184.141 28.248L187.561 24.306H184.753L182.089 27.456V24.306H179.785V27.456L177.121 24.306H174.313L177.733 28.248L174.205 33H177.049ZM191.107 33V29.526H194.707V33H196.993V24.306H194.707V27.528H191.107V24.306H188.821V33H191.107ZM203.294 33.216C206.174 33.216 207.902 31.128 207.902 28.644C207.902 26.178 206.174 24.09 203.294 24.09C200.432 24.09 198.704 26.178 198.704 28.644C198.704 31.128 200.432 33.216 203.294 33.216ZM203.294 31.182C201.872 31.182 201.08 30.012 201.08 28.644C201.08 27.294 201.872 26.124 203.294 26.124C204.716 26.124 205.526 27.294 205.526 28.644C205.526 30.012 204.716 31.182 203.294 31.182ZM218.253 33.216C220.035 33.216 221.115 32.442 221.691 31.632L220.197 30.246C219.783 30.822 219.153 31.182 218.361 31.182C216.975 31.182 216.003 30.156 216.003 28.644C216.003 27.132 216.975 26.124 218.361 26.124C219.153 26.124 219.783 26.448 220.197 27.06L221.691 25.656C221.115 24.864 220.035 24.09 218.253 24.09C215.571 24.09 213.645 25.98 213.645 28.644C213.645 31.326 215.571 33.216 218.253 33.216ZM222.376 35.214H224.68V33H230.026V35.214H232.312V31.002H231.358V24.306H224.32L223.762 28.518C223.492 30.624 223.078 30.966 222.376 31.092V35.214ZM226.318 26.304H229.072V31.002H225.04C225.58 30.498 225.922 29.724 226.048 28.662L226.318 26.304ZM241.256 33V27.384C241.256 24.882 239.438 24.09 237.458 24.09C236.09 24.09 234.722 24.522 233.66 25.458L234.524 26.988C235.262 26.304 236.126 25.962 237.062 25.962C238.214 25.962 238.97 26.538 238.97 27.42V28.59C238.394 27.906 237.368 27.528 236.216 27.528C234.83 27.528 233.192 28.302 233.192 30.336C233.192 32.28 234.83 33.216 236.216 33.216C237.35 33.216 238.376 32.802 238.97 32.1V33H241.256ZM237.134 31.668C236.234 31.668 235.496 31.2 235.496 30.39C235.496 29.544 236.234 29.076 237.134 29.076C237.872 29.076 238.592 29.328 238.97 29.832V30.912C238.592 31.416 237.872 31.668 237.134 31.668ZM249.194 33C250.94 33 251.876 31.956 251.876 30.642C251.876 29.598 251.174 28.734 250.22 28.518C251.03 28.284 251.696 27.582 251.696 26.538C251.696 25.368 250.796 24.306 249.032 24.306H243.524V33H249.194ZM248.636 31.128H245.81V29.508H248.636C249.212 29.508 249.536 29.886 249.536 30.318C249.536 30.822 249.194 31.128 248.636 31.128ZM248.564 27.636H245.81V26.178H248.564C249.068 26.178 249.374 26.484 249.374 26.916C249.374 27.312 249.068 27.636 248.564 27.636ZM261.577 33V27.384C261.577 24.882 259.759 24.09 257.779 24.09C256.411 24.09 255.043 24.522 253.981 25.458L254.845 26.988C255.583 26.304 256.447 25.962 257.383 25.962C258.535 25.962 259.291 26.538 259.291 27.42V28.59C258.715 27.906 257.689 27.528 256.537 27.528C255.151 27.528 253.513 28.302 253.513 30.336C253.513 32.28 255.151 33.216 256.537 33.216C257.671 33.216 258.697 32.802 259.291 32.1V33H261.577ZM257.455 31.668C256.555 31.668 255.817 31.2 255.817 30.39C255.817 29.544 256.555 29.076 257.455 29.076C258.193 29.076 258.913 29.328 259.291 29.832V30.912C258.913 31.416 258.193 31.668 257.455 31.668ZM267.75 33V26.304H270.18V24.306H263.016V26.304H265.446V33H267.75ZM271.613 24.306V33H276.869C278.813 33 279.893 31.686 279.893 30.138C279.893 28.608 278.885 27.294 276.869 27.294H273.899V24.306H271.613ZM276.527 29.202C277.175 29.202 277.553 29.598 277.553 30.138C277.553 30.678 277.175 31.074 276.527 31.074H273.899V29.202H276.527ZM288.832 33.216C291.496 33.216 293.44 31.326 293.44 28.644C293.44 25.98 291.496 24.09 288.832 24.09C287.05 24.09 285.952 24.864 285.394 25.656L286.798 26.916C287.23 26.304 287.896 25.908 288.688 25.908C289.84 25.908 290.686 26.574 290.956 27.744H287.464V29.508H290.974C290.704 30.714 289.84 31.398 288.688 31.398C287.896 31.398 287.23 30.984 286.798 30.372L285.394 31.632C285.952 32.442 287.05 33.216 288.832 33.216ZM303.647 33L300.101 28.248L303.539 24.306H300.731L297.437 28.176V24.306H295.151V33H297.437V30.768L298.481 29.652L300.785 33H303.647ZM307.951 33.216C310.543 33.216 312.145 32.136 312.145 30.606C312.145 29.292 310.759 28.608 309.697 28.536C310.849 28.356 311.965 27.6 311.965 26.484C311.965 25.008 310.435 24.09 307.717 24.108C306.133 24.108 304.873 24.702 304.027 25.548L305.143 26.898C305.827 26.232 306.709 25.908 307.843 25.908C308.869 25.908 309.589 26.268 309.589 26.79C309.589 27.402 308.995 27.726 307.807 27.726H306.025V29.49H307.807C308.995 29.49 309.751 29.796 309.751 30.462C309.751 31.02 309.121 31.398 307.951 31.398C306.907 31.398 305.755 31.092 304.945 30.408L303.901 31.83C304.747 32.658 306.151 33.216 307.951 33.216ZM321.36 33V27.384C321.36 24.882 319.542 24.09 317.562 24.09C316.194 24.09 314.826 24.522 313.764 25.458L314.628 26.988C315.366 26.304 316.23 25.962 317.166 25.962C318.318 25.962 319.074 26.538 319.074 27.42V28.59C318.498 27.906 317.472 27.528 316.32 27.528C314.934 27.528 313.296 28.302 313.296 30.336C313.296 32.28 314.934 33.216 316.32 33.216C317.454 33.216 318.48 32.802 319.074 32.1V33H321.36ZM317.238 31.668C316.338 31.668 315.6 31.2 315.6 30.39C315.6 29.544 316.338 29.076 317.238 29.076C317.976 29.076 318.696 29.328 319.074 29.832V30.912C318.696 31.416 317.976 31.668 317.238 31.668ZM333.905 33V24.306H330.881L328.775 29.49L326.633 24.306H323.627V33H325.913V27.348L328.253 33H329.297L331.619 27.348V33H333.905ZM340.264 33.216C341.614 33.216 342.982 32.802 343.846 32.01L342.838 30.534C342.28 31.074 341.254 31.398 340.516 31.398C339.04 31.398 338.158 30.48 338.014 29.382H344.476V28.878C344.476 26.034 342.712 24.09 340.12 24.09C337.474 24.09 335.62 26.124 335.62 28.644C335.62 31.434 337.618 33.216 340.264 33.216ZM342.262 27.834H337.978C338.086 26.97 338.698 25.908 340.12 25.908C341.632 25.908 342.208 27.006 342.262 27.834ZM348.413 33V29.526H352.013V33H354.299V24.306H352.013V27.528H348.413V24.306H346.127V33H348.413ZM358.146 29.328L360.108 28.752C359.928 28.59 359.784 28.284 359.784 27.996C359.784 26.484 362.79 26.286 362.79 23.658C362.79 21.984 361.368 20.814 359.046 20.814C357.498 20.814 356.058 21.444 355.104 22.56L356.562 24.198C357.12 23.532 357.876 23.082 358.776 23.082C359.766 23.082 360.18 23.55 360.18 24.108C360.18 25.35 357.552 25.602 357.552 27.744C357.552 28.374 357.768 28.914 358.146 29.328ZM359.01 33.198C359.802 33.198 360.468 32.532 360.468 31.74C360.468 30.948 359.802 30.282 359.01 30.282C358.218 30.282 357.552 30.948 357.552 31.74C357.552 32.532 358.218 33.198 359.01 33.198Z" transform="translate(4.86914 2)" fill="black"/>
</svg>
