<svg width="16" height="17" viewBox="0 0 16 17" fill="none" xmlns="http://www.w3.org/2000/svg">
<path d="M12.0527 10.5843C11.5348 10.0683 10.8882 10.0683 10.3736 10.5843C9.98098 10.9772 9.5884 11.3701 9.20242 11.7696C9.09686 11.8795 9.00778 11.9028 8.87912 11.8295C8.6251 11.6897 8.35459 11.5765 8.11046 11.4233C6.97232 10.7009 6.01892 9.77194 5.17438 8.72649C4.75541 8.2071 4.38263 7.65108 4.12201 7.02515C4.06922 6.89863 4.07912 6.8154 4.18139 6.71218C4.57397 6.3293 4.95665 5.93642 5.34263 5.54355C5.88036 4.99752 5.88036 4.35827 5.33933 3.80891C5.03252 3.49594 4.72572 3.18963 4.41891 2.87667C4.10221 2.55704 3.78881 2.23408 3.46881 1.91779C2.95087 1.40838 2.30427 1.40838 1.78963 1.92112C1.39376 2.31399 1.01438 2.71685 0.611902 3.10307C0.239118 3.45932 0.0510767 3.89548 0.0114891 4.40488C-0.0511914 5.23391 0.150046 6.01633 0.433757 6.77877C1.01438 8.35693 1.8985 9.75862 2.97067 11.0438C4.41891 12.7818 6.14758 14.1568 8.16984 15.149C9.08036 15.5951 10.0239 15.9381 11.0498 15.9947C11.7558 16.0346 12.3694 15.8548 12.861 15.2988C13.1975 14.9193 13.5769 14.573 13.9331 14.2101C14.461 13.6707 14.4643 13.0181 13.9397 12.4854C13.3129 11.8495 12.6828 11.2169 12.0527 10.5843Z" transform="translate(0.0395508 0.304688)" fill="white"/>
<path d="M11.4226 7.93073L12.6399 7.72097C12.4485 6.59229 11.9207 5.57015 11.1191 4.75777C10.2712 3.9021 9.19905 3.36273 8.01802 3.19626L7.84647 4.43148C8.76029 4.56133 9.59163 4.97751 10.2481 5.64007C10.8683 6.266 11.2741 7.05841 11.4226 7.93073Z" transform="translate(0.0395508 0.304688)" fill="white"/>
<path d="M13.3261 2.59031C11.9208 1.17196 10.1426 0.276344 8.17974 0L8.00819 1.23522C9.70386 1.47494 11.2412 2.2507 12.4552 3.47261C13.6065 4.63458 14.362 6.10287 14.6358 7.71765L15.8531 7.50789C15.5331 5.63674 14.6589 3.93873 13.3261 2.59031Z" transform="translate(0.0395508 0.304688)" fill="white"/>
</svg>
