<svg width="159" height="50" viewBox="0 0 159 50" fill="none" xmlns="http://www.w3.org/2000/svg">
<rect width="159" height="50" fill="black" fill-opacity="0"/>
<path d="M154.031 50H4.96875C2.23594 50 0 47.75 0 45V5C0 2.25 2.23594 0 4.96875 0H154.031C156.764 0 159 2.25 159 5V45C159 47.75 156.764 50 154.031 50Z" fill="#D50458"/>
<path d="M33.539 24.75C33.539 20.875 36.7687 19 36.8929 18.875C35.0296 16.25 32.2968 15.875 31.3031 15.75C28.9429 15.5 26.5828 17.125 25.4648 17.125C24.2226 17.125 22.3593 15.75 20.3718 15.75C17.7632 15.75 15.4031 17.25 14.0367 19.625C11.3039 24.375 13.2914 31.375 15.9 35.25C17.2664 37.125 18.757 39.25 20.7445 39.125C22.732 39 23.4773 37.875 25.8375 37.875C28.1976 37.875 28.8187 39.125 30.9304 39.125C33.0421 39.125 34.4086 37.25 35.6507 35.375C37.1414 33.25 37.7625 31.125 37.7625 31C37.6382 30.875 33.539 29.375 33.539 24.75Z" fill="white"/>
<path d="M29.6886 13.25C30.6823 11.875 31.4276 10.125 31.3034 8.25C29.8128 8.375 27.8253 9.25 26.8316 10.625C25.8378 11.75 24.9683 13.625 25.2167 15.375C26.8316 15.5 28.5706 14.5 29.6886 13.25Z" fill="white"/>
<path d="M61.8609 38.875H59.1281L57.6375 34.125H52.4203L51.0539 38.875H48.4453L53.6625 22.75H56.8922L61.8609 38.875ZM57.1406 32.125L55.7742 27.875C55.65 27.5 55.4016 26.375 54.9047 24.875C54.7805 25.5 54.532 26.625 54.1594 27.875L52.793 32.125H57.1406Z" fill="white"/>
<path d="M75.1523 33C75.1523 35 74.6555 36.5 73.5375 37.75C72.5438 38.75 71.4258 39.25 69.9352 39.25C68.4445 39.25 67.3266 38.75 66.7055 37.625V43.75H64.0969V31.25C64.0969 30 64.0969 28.75 63.9727 27.375H66.2086L66.3328 29.25C67.2023 27.875 68.4445 27.125 70.1836 27.125C71.55 27.125 72.668 27.625 73.5375 28.75C74.6555 29.75 75.1523 31.125 75.1523 33ZM72.5438 33C72.5438 31.875 72.2953 30.875 71.7984 30.25C71.3016 29.5 70.5563 29.125 69.5625 29.125C68.9414 29.125 68.3203 29.375 67.8234 29.75C67.3266 30.125 66.9539 30.75 66.8297 31.375C66.7055 31.75 66.7055 32 66.7055 32.125V34.125C66.7055 35 66.9539 35.625 67.4508 36.25C67.9477 36.875 68.693 37.125 69.4383 37.125C70.432 37.125 71.1773 36.75 71.6742 36C72.2953 35.25 72.5438 34.25 72.5438 33Z" fill="white"/>
<path d="M88.4438 33C88.4438 35 87.947 36.5 86.829 37.75C85.8352 38.75 84.7173 39.25 83.2267 39.25C81.736 39.25 80.6181 38.75 79.997 37.625V43.75H77.3884V31.25C77.3884 30 77.3884 28.75 77.2642 27.375H79.5001L79.6243 29.25C80.4938 27.875 81.736 27.125 83.4751 27.125C84.8415 27.125 85.9595 27.625 86.829 28.75C87.947 29.75 88.4438 31.125 88.4438 33ZM85.8353 33C85.8353 31.875 85.5868 30.875 85.0899 30.25C84.5931 29.5 83.8478 29.125 82.854 29.125C82.2329 29.125 81.6118 29.375 81.1149 29.75C80.6181 30.125 80.2454 30.75 80.1212 31.375C79.997 31.75 79.997 32 79.997 32.125V34.125C79.997 35 80.2454 35.625 80.7423 36.25C81.2392 36.875 81.9845 37.125 82.7298 37.125C83.7235 37.125 84.4688 36.75 84.9657 36C85.5868 35.25 85.8353 34.25 85.8353 33Z" fill="white"/>
<path d="M103.35 34.375C103.35 35.75 102.853 36.875 101.983 37.75C100.99 38.75 99.4991 39.125 97.6358 39.125C95.8968 39.125 94.5304 38.75 93.5366 38.125L94.1577 36C95.2757 36.625 96.5179 37 97.8843 37C98.878 37 99.6233 36.75 100.12 36.375C100.617 35.875 100.866 35.375 100.866 34.625C100.866 34 100.617 33.375 100.244 33C99.7476 32.5 99.0022 32.125 98.0085 31.75C95.1515 30.75 93.7851 29.125 93.7851 27.125C93.7851 25.75 94.2819 24.75 95.2757 23.875C96.2694 23 97.5116 22.625 99.2507 22.625C100.741 22.625 101.859 22.875 102.853 23.375L102.232 25.5C101.362 25 100.369 24.75 99.1265 24.75C98.2569 24.75 97.5116 25 97.0148 25.375C96.6421 25.75 96.3937 26.25 96.3937 26.875C96.3937 27.5 96.6421 28 97.139 28.5C97.5116 28.875 98.3812 29.25 99.4991 29.75C100.866 30.25 101.859 31 102.605 31.75C102.977 32.375 103.35 33.25 103.35 34.375Z" fill="white"/>
<path d="M111.797 29.25H108.94V34.875C108.94 36.25 109.437 37 110.43 37C110.927 37 111.3 37 111.548 36.875L111.673 38.875C111.176 39.125 110.555 39.125 109.685 39.125C108.691 39.125 107.822 38.875 107.325 38.25C106.704 37.625 106.455 36.625 106.455 35.125V29.25H104.716V27.25H106.455V25.125L108.94 24.375V27.25H111.797V29.25Z" fill="white"/>
<path d="M124.592 33C124.592 34.75 124.095 36.25 123.101 37.375C121.983 38.5 120.617 39.125 118.877 39.125C117.138 39.125 115.772 38.5 114.778 37.375C113.784 36.25 113.288 34.875 113.288 33.125C113.288 31.375 113.784 29.875 114.902 28.75C115.896 27.625 117.387 27 119.126 27C120.865 27 122.231 27.625 123.225 28.75C124.095 29.875 124.592 31.25 124.592 33ZM121.859 33.125C121.859 32 121.61 31.125 121.113 30.375C120.617 29.5 119.747 29 118.753 29C117.759 29 116.89 29.5 116.393 30.375C115.896 31.125 115.648 32.125 115.648 33.125C115.648 34.25 115.896 35.125 116.393 35.875C116.89 36.75 117.759 37.25 118.753 37.25C119.747 37.25 120.492 36.75 121.113 35.875C121.61 35.125 121.859 34.125 121.859 33.125Z" fill="white"/>
<path d="M132.914 29.5C132.666 29.5 132.417 29.375 132.045 29.375C131.175 29.375 130.43 29.75 129.933 30.375C129.56 31 129.312 31.75 129.312 32.625V38.75H126.703V30.75C126.703 29.375 126.703 28.25 126.579 27.125H128.815L128.939 29.375H129.063C129.312 28.625 129.809 28 130.306 27.5C130.927 27.125 131.548 26.875 132.169 26.875C132.417 26.875 132.666 26.875 132.79 26.875V29.5H132.914Z" fill="white"/>
<path d="M144.342 32.5C144.342 33 144.342 33.375 144.218 33.625H136.517C136.517 34.75 136.889 35.625 137.635 36.25C138.256 36.75 139.125 37.125 140.119 37.125C141.237 37.125 142.355 37 143.224 36.625L143.597 38.375C142.479 38.875 141.237 39.125 139.746 39.125C138.007 39.125 136.517 38.625 135.523 37.5C134.529 36.5 134.032 35 134.032 33.25C134.032 31.5 134.529 30 135.399 28.875C136.392 27.625 137.759 27 139.498 27C141.113 27 142.479 27.625 143.224 28.875C144.094 29.875 144.342 31.125 144.342 32.5ZM141.982 31.875C141.982 31.125 141.858 30.5 141.485 29.875C140.988 29.125 140.367 28.75 139.498 28.75C138.628 28.75 138.007 29.125 137.51 29.75C137.138 30.25 136.889 31 136.765 31.75H141.982V31.875Z" fill="white"/>
<path d="M56.3954 12.875C56.3954 14.25 56.0227 15.375 55.1532 16.125C54.4079 16.75 53.2899 17.125 51.7993 17.125C51.054 17.125 50.4329 17.125 49.936 17V9.25C50.5571 9.125 51.3024 9.125 52.172 9.125C53.5384 9.125 54.5321 9.375 55.2774 10C55.8985 10.625 56.3954 11.625 56.3954 12.875ZM55.029 12.875C55.029 12 54.7806 11.25 54.2837 10.75C53.7868 10.25 53.0415 10 52.172 10C51.7993 10 51.4267 10 51.1782 10.125V16C51.3024 16 51.6751 16 52.0477 16C53.0415 16 53.7868 15.75 54.2837 15.25C54.7806 14.75 55.029 13.875 55.029 12.875Z" fill="white"/>
<path d="M63.3516 14.125C63.3516 15 63.1031 15.75 62.6063 16.25C62.1094 16.875 61.3641 17.125 60.4945 17.125C59.625 17.125 59.0039 16.875 58.507 16.25C58.0102 15.75 57.7617 15 57.7617 14.125C57.7617 13.25 58.0102 12.5 58.507 12C59.0039 11.375 59.7492 11.125 60.6188 11.125C61.4883 11.125 62.1094 11.375 62.6063 12C63.1031 12.5 63.3516 13.25 63.3516 14.125ZM62.1094 14.125C62.1094 13.625 61.9852 13.125 61.7367 12.75C61.4883 12.25 61.1156 12.125 60.6188 12.125C60.1219 12.125 59.7492 12.375 59.5008 12.75C59.2523 13.125 59.1281 13.625 59.1281 14.125C59.1281 14.625 59.2523 15.125 59.5008 15.5C59.7492 16 60.1219 16.125 60.6188 16.125C61.1156 16.125 61.4883 15.875 61.7367 15.375C61.9852 15.125 62.1094 14.625 62.1094 14.125Z" fill="white"/>
<path d="M72.9164 11.25L71.1773 17H70.0594L69.3141 14.5C69.0656 13.875 68.9414 13.25 68.8172 12.625C68.693 13.25 68.5688 13.875 68.3203 14.5L67.575 17H66.457L64.5938 11.25H65.8359L66.457 14C66.5813 14.625 66.7055 15.25 66.8297 15.875C66.9539 15.375 67.0781 14.75 67.3266 14L68.0719 11.25H69.0656L69.8109 13.875C70.0594 14.5 70.1836 15.125 70.3078 15.75C70.432 15.125 70.5563 14.5 70.6805 13.875L71.4258 11.25H72.9164Z" fill="white"/>
<path d="M79.3758 17H78.1336V13.75C78.1336 12.75 77.7609 12.25 77.0156 12.25C76.643 12.25 76.3945 12.375 76.1461 12.625C75.8977 12.875 75.7734 13.25 75.7734 13.625V17H74.5312V12.875C74.5312 12.375 74.5312 11.875 74.5312 11.25H75.6492V12.125C75.7734 11.875 76.0219 11.625 76.2703 11.375C76.643 11.125 77.0156 11 77.3883 11C77.8852 11 78.382 11.125 78.7547 11.5C79.2516 11.875 79.3758 12.5 79.3758 13.375V17Z" fill="white"/>
<path d="M82.854 17H81.6118V8.625H82.854V17Z" fill="white"/>
<path d="M90.3071 14.125C90.3071 15 90.0587 15.75 89.5618 16.25C89.0649 16.875 88.3196 17.125 87.4501 17.125C86.5806 17.125 85.9595 16.875 85.4626 16.25C84.9657 15.75 84.7173 15 84.7173 14.125C84.7173 13.25 84.9657 12.5 85.4626 12C85.9595 11.5 86.7048 11.125 87.5743 11.125C88.4438 11.125 89.0649 11.375 89.5618 12C90.0587 12.5 90.3071 13.25 90.3071 14.125ZM89.0649 14.125C89.0649 13.625 88.9407 13.125 88.6923 12.75C88.4438 12.25 88.0712 12.125 87.5743 12.125C87.0774 12.125 86.7048 12.375 86.4563 12.75C86.2079 13.125 86.0837 13.625 86.0837 14.125C86.0837 14.625 86.2079 15.125 86.4563 15.5C86.7048 16 87.0774 16.125 87.5743 16.125C88.0712 16.125 88.4438 15.875 88.6923 15.375C88.9407 15.125 89.0649 14.625 89.0649 14.125Z" fill="white"/>
<path d="M96.394 17H95.276L95.1518 16.375C94.7791 16.875 94.158 17.125 93.5369 17.125C93.04 17.125 92.5432 17 92.2947 16.625C92.0463 16.25 91.7979 15.875 91.7979 15.5C91.7979 14.75 92.0463 14.25 92.6674 13.875C93.2885 13.5 94.0338 13.375 95.1518 13.375V13.25C95.1518 12.5 94.7791 12.125 94.0338 12.125C93.4127 12.125 93.04 12.25 92.5432 12.5L92.2947 11.625C92.7916 11.25 93.4127 11.125 94.2822 11.125C95.7729 11.125 96.5182 11.875 96.5182 13.5V15.625C96.3939 16.25 96.394 16.625 96.394 17ZM95.1518 15V14.125C93.7854 14.125 93.04 14.5 93.04 15.25C93.04 15.5 93.1643 15.75 93.2885 15.875C93.4127 16 93.6611 16.125 93.9096 16.125C94.158 16.125 94.4064 16 94.6549 15.875C94.9033 15.75 95.0275 15.5 95.1518 15.25C95.1518 15.25 95.1518 15.125 95.1518 15Z" fill="white"/>
<path d="M103.598 17H102.48V16.125C102.108 16.875 101.487 17.125 100.617 17.125C99.8717 17.125 99.3748 16.875 98.8779 16.375C98.3811 15.875 98.2568 15.125 98.2568 14.25C98.2568 13.375 98.5053 12.625 99.0021 12C99.499 11.5 100.12 11.25 100.741 11.25C101.487 11.25 101.983 11.5 102.356 12V8.75H103.598V15.5C103.598 16 103.598 16.5 103.598 17ZM102.356 14.625V13.625C102.356 13.5 102.356 13.375 102.356 13.25C102.232 13 102.108 12.75 101.859 12.5C101.611 12.25 101.362 12.25 100.99 12.25C100.493 12.25 100.12 12.5 99.8717 12.875C99.6232 13.25 99.499 13.75 99.499 14.375C99.499 15 99.6232 15.375 99.8717 15.75C100.12 16.125 100.493 16.375 100.99 16.375C101.362 16.375 101.735 16.25 101.983 15.875C102.232 15.375 102.356 15 102.356 14.625Z" fill="white"/>
<path d="M114.405 14.125C114.405 15 114.157 15.75 113.66 16.25C113.163 16.875 112.418 17.125 111.548 17.125C110.679 17.125 110.058 16.875 109.561 16.25C109.064 15.75 108.815 15 108.815 14.125C108.815 13.25 109.064 12.5 109.561 12C110.058 11.375 110.803 11.125 111.672 11.125C112.542 11.125 113.163 11.375 113.66 12C114.157 12.5 114.405 13.25 114.405 14.125ZM113.039 14.125C113.039 13.625 112.915 13.125 112.666 12.75C112.418 12.25 112.045 12.125 111.548 12.125C111.051 12.125 110.679 12.375 110.43 12.75C110.182 13.125 110.058 13.625 110.058 14.125C110.058 14.625 110.182 15.125 110.43 15.5C110.679 16 111.051 16.125 111.548 16.125C112.045 16.125 112.418 15.875 112.666 15.375C112.915 15.125 113.039 14.625 113.039 14.125Z" fill="white"/>
<path d="M121.238 17H119.995V13.75C119.995 12.75 119.623 12.25 118.877 12.25C118.505 12.25 118.256 12.375 118.008 12.625C117.759 12.875 117.635 13.25 117.635 13.625V17H116.393V12.875C116.393 12.375 116.393 11.875 116.393 11.25H117.511V12.125C117.635 11.875 117.884 11.625 118.132 11.375C118.505 11.125 118.877 11 119.25 11C119.747 11 120.244 11.125 120.617 11.5C121.113 11.875 121.238 12.5 121.238 13.375V17Z" fill="white"/>
<path d="M129.684 12.25H128.318V15C128.318 15.75 128.567 16 129.063 16C129.312 16 129.436 16 129.684 16V17C129.436 17.125 129.063 17.125 128.691 17.125C128.194 17.125 127.821 17 127.573 16.625C127.324 16.375 127.2 15.75 127.2 15.125V12.25H126.331V11.25H127.2V10.25L128.442 9.875V11.25H129.809V12.25H129.684Z" fill="white"/>
<path d="M136.392 17H135.15V13.75C135.15 12.75 134.778 12.25 134.032 12.25C133.411 12.25 133.038 12.5 132.79 13.125C132.79 13.25 132.79 13.375 132.79 13.625V17H131.548V8.625H132.79V12.125C133.163 11.5 133.784 11.125 134.529 11.125C135.026 11.125 135.523 11.25 135.771 11.625C136.144 12 136.392 12.75 136.392 13.5V17Z" fill="white"/>
<path d="M143.224 13.875C143.224 14.125 143.224 14.25 143.224 14.5H139.498C139.498 15.125 139.746 15.5 139.994 15.75C140.367 16 140.74 16.125 141.237 16.125C141.858 16.125 142.355 16 142.727 15.875L142.976 16.75C142.479 17 141.858 17.125 141.112 17.125C140.243 17.125 139.498 16.875 139.001 16.375C138.504 15.875 138.255 15.125 138.255 14.25C138.255 13.375 138.504 12.625 139.001 12.125C139.498 11.5 140.119 11.25 140.988 11.25C141.858 11.25 142.479 11.5 142.851 12.125C143.1 12.5 143.224 13.125 143.224 13.875ZM142.106 13.5C142.106 13.125 141.982 12.75 141.858 12.5C141.609 12.125 141.361 12 140.864 12C140.491 12 140.119 12.125 139.87 12.5C139.622 12.75 139.498 13.125 139.498 13.5H142.106Z" fill="white"/>
</svg>
