<svg width="450" height="74" viewBox="0 0 450 74" fill="none" xmlns="http://www.w3.org/2000/svg">
<rect width="444.5" height="61.5927" rx="10" transform="translate(5.36963)"/>
<path class="first" d="M24.7173 12.4179L5.36961 0C1.73159 11.0933 -3.53588 27.8546 3.36941 23.8252C12.8186 18.3113 17.6066 13.4113 24.7173 12.4179Z" transform="translate(0 49.1748)"/>
<path class="second" d="M26.3926 33.216C30.0286 33.216 32.6746 30.624 32.6746 27.006C32.6746 23.388 30.0286 20.796 26.3926 20.796C22.7746 20.796 20.1286 23.388 20.1286 27.006C20.1286 30.624 22.7746 33.216 26.3926 33.216ZM26.3926 30.948C24.1786 30.948 22.7566 29.238 22.7566 27.006C22.7566 24.756 24.1786 23.064 26.3926 23.064C28.6066 23.064 30.0466 24.756 30.0466 27.006C30.0466 29.238 28.6066 30.948 26.3926 30.948ZM47.1917 33V24.306H39.0197V33H41.3057V26.304H44.9057V33H47.1917ZM53.4931 33.216C56.3731 33.216 58.1011 31.128 58.1011 28.644C58.1011 26.178 56.3731 24.09 53.4931 24.09C50.6311 24.09 48.9031 26.178 48.9031 28.644C48.9031 31.128 50.6311 33.216 53.4931 33.216ZM53.4931 31.182C52.0711 31.182 51.2791 30.012 51.2791 28.644C51.2791 27.294 52.0711 26.124 53.4931 26.124C54.9151 26.124 55.7251 27.294 55.7251 28.644C55.7251 30.012 54.9151 31.182 53.4931 31.182ZM64.7651 33.216C66.9971 33.216 68.6171 31.542 68.6171 28.644C68.6171 25.746 66.9971 24.09 64.7651 24.09C63.7031 24.09 62.7491 24.558 62.0831 25.404V24.306H59.7971V36.312H62.0831V31.884C62.7851 32.784 63.7391 33.216 64.7651 33.216ZM64.0451 31.182C63.3071 31.182 62.4611 30.732 62.0831 30.192V27.114C62.4611 26.556 63.3071 26.124 64.0451 26.124C65.3591 26.124 66.2411 27.15 66.2411 28.644C66.2411 30.156 65.3591 31.182 64.0451 31.182ZM72.5952 33L74.3052 30.012H76.0872V33H78.3732V24.306H73.0992C71.1732 24.306 70.0932 25.62 70.0932 27.15C70.0932 28.698 71.0292 29.598 72.0192 29.85L70.0032 33H72.5952ZM73.4592 28.104C72.8112 28.104 72.4152 27.708 72.4152 27.15C72.4152 26.61 72.8292 26.232 73.4592 26.232H76.0872V28.104H73.4592ZM79.7996 35.214H82.1036V33H87.4496V35.214H89.7356V31.002H88.7816V24.306H81.7436L81.1856 28.518C80.9156 30.624 80.5016 30.966 79.7996 31.092V35.214ZM83.7416 26.304H86.4956V31.002H82.4636C83.0036 30.498 83.3456 29.724 83.4716 28.662L83.7416 26.304ZM99.67 33L96.124 28.248L99.562 24.306H96.754L93.46 28.176V24.306H91.174V33H93.46V30.768L94.504 29.652L96.808 33H99.67ZM104.787 33.216C106.137 33.216 107.505 32.802 108.369 32.01L107.361 30.534C106.803 31.074 105.777 31.398 105.039 31.398C103.563 31.398 102.681 30.48 102.537 29.382H108.999V28.878C108.999 26.034 107.235 24.09 104.643 24.09C101.997 24.09 100.143 26.124 100.143 28.644C100.143 31.434 102.141 33.216 104.787 33.216ZM106.785 27.834H102.501C102.609 26.97 103.221 25.908 104.643 25.908C106.155 25.908 106.731 27.006 106.785 27.834ZM119.162 33V26.304H121.592V24.306H114.428V26.304H116.858V33H119.162ZM127.112 33.216C128.462 33.216 129.83 32.802 130.694 32.01L129.686 30.534C129.128 31.074 128.102 31.398 127.364 31.398C125.888 31.398 125.006 30.48 124.862 29.382H131.324V28.878C131.324 26.034 129.56 24.09 126.968 24.09C124.322 24.09 122.468 26.124 122.468 28.644C122.468 31.434 124.466 33.216 127.112 33.216ZM129.11 27.834H124.826C124.934 26.97 125.546 25.908 126.968 25.908C128.48 25.908 129.056 27.006 129.11 27.834ZM137.025 33.216C138.807 33.216 139.887 32.442 140.463 31.632L138.969 30.246C138.555 30.822 137.925 31.182 137.133 31.182C135.747 31.182 134.775 30.156 134.775 28.644C134.775 27.132 135.747 26.124 137.133 26.124C137.925 26.124 138.555 26.448 138.969 27.06L140.463 25.656C139.887 24.864 138.807 24.09 137.025 24.09C134.343 24.09 132.417 25.98 132.417 28.644C132.417 31.326 134.343 33.216 137.025 33.216ZM145.863 33V26.304H148.293V24.306H141.129V26.304H143.559V33H145.863ZM151.923 33L155.613 27.546V33H157.899V24.306H155.595L152.013 29.562V24.306H149.727V33H151.923ZM165.136 33.216C167.368 33.216 168.988 31.542 168.988 28.644C168.988 25.746 167.368 24.09 165.136 24.09C164.074 24.09 163.12 24.558 162.454 25.404V24.306H160.168V36.312H162.454V31.884C163.156 32.784 164.11 33.216 165.136 33.216ZM164.416 31.182C163.678 31.182 162.832 30.732 162.454 30.192V27.114C162.832 26.556 163.678 26.124 164.416 26.124C165.73 26.124 166.612 27.15 166.612 28.644C166.612 30.156 165.73 31.182 164.416 31.182ZM174.694 33.216C177.574 33.216 179.302 31.128 179.302 28.644C179.302 26.178 177.574 24.09 174.694 24.09C171.832 24.09 170.104 26.178 170.104 28.644C170.104 31.128 171.832 33.216 174.694 33.216ZM174.694 31.182C173.272 31.182 172.48 30.012 172.48 28.644C172.48 27.294 173.272 26.124 174.694 26.124C176.116 26.124 176.926 27.294 176.926 28.644C176.926 30.012 176.116 31.182 174.694 31.182ZM186.668 33C188.414 33 189.35 31.956 189.35 30.642C189.35 29.598 188.648 28.734 187.694 28.518C188.504 28.284 189.17 27.582 189.17 26.538C189.17 25.368 188.27 24.306 186.506 24.306H180.998V33H186.668ZM186.11 31.128H183.284V29.508H186.11C186.686 29.508 187.01 29.886 187.01 30.318C187.01 30.822 186.668 31.128 186.11 31.128ZM186.038 27.636H183.284V26.178H186.038C186.542 26.178 186.848 26.484 186.848 26.916C186.848 27.312 186.542 27.636 186.038 27.636ZM199.051 33V27.384C199.051 24.882 197.233 24.09 195.253 24.09C193.885 24.09 192.517 24.522 191.455 25.458L192.319 26.988C193.057 26.304 193.921 25.962 194.857 25.962C196.009 25.962 196.765 26.538 196.765 27.42V28.59C196.189 27.906 195.163 27.528 194.011 27.528C192.625 27.528 190.987 28.302 190.987 30.336C190.987 32.28 192.625 33.216 194.011 33.216C195.145 33.216 196.171 32.802 196.765 32.1V33H199.051ZM194.929 31.668C194.029 31.668 193.291 31.2 193.291 30.39C193.291 29.544 194.029 29.076 194.929 29.076C195.667 29.076 196.387 29.328 196.765 29.832V30.912C196.387 31.416 195.667 31.668 194.929 31.668ZM203.605 33V29.526H207.205V33H209.491V24.306H207.205V27.528H203.605V24.306H201.319V33H203.605ZM213.956 33L217.646 27.546V33H219.932V24.306H217.628L214.046 29.562V24.306H211.76V33H213.956ZM224.505 33L226.215 30.012H227.997V33H230.283V24.306H225.009C223.083 24.306 222.003 25.62 222.003 27.15C222.003 28.698 222.939 29.598 223.929 29.85L221.913 33H224.505ZM225.369 28.104C224.721 28.104 224.325 27.708 224.325 27.15C224.325 26.61 224.739 26.232 225.369 26.232H227.997V28.104H225.369ZM239.321 33L243.011 27.546V33H245.297V24.306H242.993L239.411 29.562V24.306H237.125V33H239.321ZM249.853 33V29.526H253.453V33H255.739V24.306H253.453V27.528H249.853V24.306H247.567V33H249.853ZM262.04 33.216C264.92 33.216 266.648 31.128 266.648 28.644C266.648 26.178 264.92 24.09 262.04 24.09C259.178 24.09 257.45 26.178 257.45 28.644C257.45 31.128 259.178 33.216 262.04 33.216ZM262.04 31.182C260.618 31.182 259.826 30.012 259.826 28.644C259.826 27.294 260.618 26.124 262.04 26.124C263.462 26.124 264.272 27.294 264.272 28.644C264.272 30.012 263.462 31.182 262.04 31.182ZM272.394 33.216C274.176 33.216 275.256 32.442 275.832 31.632L274.338 30.246C273.924 30.822 273.294 31.182 272.502 31.182C271.116 31.182 270.144 30.156 270.144 28.644C270.144 27.132 271.116 26.124 272.502 26.124C273.294 26.124 273.924 26.448 274.338 27.06L275.832 25.656C275.256 24.864 274.176 24.09 272.394 24.09C269.712 24.09 267.786 25.98 267.786 28.644C267.786 31.326 269.712 33.216 272.394 33.216ZM281.232 33V26.304H283.662V24.306H276.498V26.304H278.928V33H281.232ZM290.064 33.216C292.296 33.216 293.916 31.542 293.916 28.644C293.916 25.746 292.296 24.09 290.064 24.09C289.002 24.09 288.048 24.558 287.382 25.404V24.306H285.096V36.312H287.382V31.884C288.084 32.784 289.038 33.216 290.064 33.216ZM289.344 31.182C288.606 31.182 287.76 30.732 287.382 30.192V27.114C287.76 26.556 288.606 26.124 289.344 26.124C290.658 26.124 291.54 27.15 291.54 28.644C291.54 30.156 290.658 31.182 289.344 31.182ZM303.096 33V27.384C303.096 24.882 301.278 24.09 299.298 24.09C297.93 24.09 296.562 24.522 295.5 25.458L296.364 26.988C297.102 26.304 297.966 25.962 298.902 25.962C300.054 25.962 300.81 26.538 300.81 27.42V28.59C300.234 27.906 299.208 27.528 298.056 27.528C296.67 27.528 295.032 28.302 295.032 30.336C295.032 32.28 296.67 33.216 298.056 33.216C299.19 33.216 300.216 32.802 300.81 32.1V33H303.096ZM298.974 31.668C298.074 31.668 297.336 31.2 297.336 30.39C297.336 29.544 298.074 29.076 298.974 29.076C299.712 29.076 300.432 29.328 300.81 29.832V30.912C300.432 31.416 299.712 31.668 298.974 31.668ZM307.649 33V29.526H311.249V33H313.535V24.306H311.249V27.528H307.649V24.306H305.363V33H307.649ZM318.091 33V29.526H321.691V33H323.977V24.306H321.691V27.528H318.091V24.306H315.805V33H318.091ZM326.246 24.306V33H331.502C333.446 33 334.526 31.686 334.526 30.138C334.526 28.608 333.518 27.294 331.502 27.294H328.532V24.306H326.246ZM331.16 29.202C331.808 29.202 332.186 29.598 332.186 30.138C332.186 30.678 331.808 31.074 331.16 31.074H328.532V29.202H331.16ZM337.964 33V24.306H335.66V33H337.964ZM348.159 33L345.045 28.536L347.961 24.306H345.405L343.623 26.988L341.823 24.306H339.267L342.165 28.536L339.087 33H341.625L343.623 30.066L345.603 33H348.159ZM360.611 24.306H353.897V33H356.183V26.304H360.611V24.306ZM367.039 33.216C369.271 33.216 370.891 31.542 370.891 28.644C370.891 25.746 369.271 24.09 367.039 24.09C365.977 24.09 365.023 24.558 364.357 25.404V24.306H362.071V36.312H364.357V31.884C365.059 32.784 366.013 33.216 367.039 33.216ZM366.319 31.182C365.581 31.182 364.735 30.732 364.357 30.192V27.114C364.735 26.556 365.581 26.124 366.319 26.124C367.633 26.124 368.515 27.15 368.515 28.644C368.515 30.156 367.633 31.182 366.319 31.182ZM380.071 33V27.384C380.071 24.882 378.253 24.09 376.273 24.09C374.905 24.09 373.537 24.522 372.475 25.458L373.339 26.988C374.077 26.304 374.941 25.962 375.877 25.962C377.029 25.962 377.785 26.538 377.785 27.42V28.59C377.209 27.906 376.183 27.528 375.031 27.528C373.645 27.528 372.007 28.302 372.007 30.336C372.007 32.28 373.645 33.216 375.031 33.216C376.165 33.216 377.191 32.802 377.785 32.1V33H380.071ZM375.949 31.668C375.049 31.668 374.311 31.2 374.311 30.39C374.311 29.544 375.049 29.076 375.949 29.076C376.687 29.076 377.407 29.328 377.785 29.832V30.912C377.407 31.416 376.687 31.668 375.949 31.668ZM384.066 33L386.388 29.652L386.802 30.102V33H389.106V30.102L389.52 29.652L391.842 33H394.686L391.158 28.248L394.578 24.306H391.77L389.106 27.456V24.306H386.802V27.456L384.138 24.306H381.33L384.75 28.248L381.222 33H384.066ZM395.028 35.214H397.332V33H402.678V35.214H404.964V31.002H404.01V24.306H396.972L396.414 28.518C396.144 30.624 395.73 30.966 395.028 31.092V35.214ZM398.97 26.304H401.724V31.002H397.692C398.232 30.498 398.574 29.724 398.7 28.662L398.97 26.304ZM413.909 33V27.384C413.909 24.882 412.091 24.09 410.111 24.09C408.743 24.09 407.375 24.522 406.313 25.458L407.177 26.988C407.915 26.304 408.779 25.962 409.715 25.962C410.867 25.962 411.623 26.538 411.623 27.42V28.59C411.047 27.906 410.021 27.528 408.869 27.528C407.483 27.528 405.845 28.302 405.845 30.336C405.845 32.28 407.483 33.216 408.869 33.216C410.003 33.216 411.029 32.802 411.623 32.1V33H413.909ZM409.787 31.668C408.887 31.668 408.149 31.2 408.149 30.39C408.149 29.544 408.887 29.076 409.787 29.076C410.525 29.076 411.245 29.328 411.623 29.832V30.912C411.245 31.416 410.525 31.668 409.787 31.668ZM418.462 33V29.526H422.062V33H424.348V24.306H422.062V27.528H418.462V24.306H416.176V33H418.462Z" transform="translate(4.86914 2)" fill="white"/>
</svg>