<svg width="161" height="50" viewBox="0 0 161 50" fill="none" xmlns="http://www.w3.org/2000/svg">
<rect width="161" height="50" fill="black" fill-opacity="0"/>
<path d="M155.969 50H5.03125C2.26406 50 0 47.75 0 45V5C0 2.25 2.26406 0 5.03125 0H155.969C158.736 0 161 2.25 161 5V45C161 47.75 158.736 50 155.969 50Z" fill="#D50458"/>
<path fill-rule="evenodd" clip-rule="evenodd" d="M12.3267 24.5V11.375C12.3267 10.625 12.9556 10 13.5845 10C14.2134 10 14.4649 10.125 14.8423 10.375L39.1181 23.625C39.6212 23.875 39.8727 24.25 39.8727 24.625C39.8727 25 39.6212 25.375 39.1181 25.625L14.8423 38.875C14.5907 39 14.2134 39.25 13.5845 39.25C12.9556 39.25 12.3267 38.625 12.3267 37.875V24.5Z" fill="url(#paint0_linear)"/>
<path fill-rule="evenodd" clip-rule="evenodd" d="M28.0494 24.625L13.333 10C13.4588 10 13.4588 10 13.5846 10C14.2135 10 14.465 10.125 14.8424 10.375L32.7033 20.125L28.0494 24.625Z" fill="url(#paint1_linear)"/>
<path fill-rule="evenodd" clip-rule="evenodd" d="M32.5774 29L28.0493 24.5L32.7032 19.875L39.1181 23.375C39.6212 23.625 39.8727 24 39.8727 24.375C39.8727 24.75 39.6212 25.125 39.1181 25.375L32.5774 29Z" fill="url(#paint2_linear)"/>
<path fill-rule="evenodd" clip-rule="evenodd" d="M13.4585 39L28.0491 24.5L32.5772 29L14.8421 38.625C14.4648 38.875 14.2132 39 13.4585 39C13.5843 39 13.5843 39 13.4585 39Z" fill="url(#paint3_linear)"/>
<path fill-rule="evenodd" clip-rule="evenodd" d="M89.4306 42.375C88.8017 41.875 88.2986 41 88.047 40.5L90.0596 39.625C90.1853 39.875 90.4369 40.25 90.6885 40.625C91.1916 41.125 91.9463 41.625 92.701 41.625C93.4557 41.625 94.3361 41.25 94.8392 40.625C95.2166 40 95.4681 39.375 95.4681 38.5V37.75C93.9588 39.625 90.8142 39.375 89.0533 37.375C87.1666 35.375 87.1666 32 89.0533 30C90.94 28.125 93.7072 27.875 95.3423 29.625V28.75H97.4806V38.125C97.4806 40.5 96.6002 41.875 95.4681 42.75C94.7134 43.375 93.5814 43.625 92.5752 43.625C91.4431 43.5 90.3111 43.125 89.4306 42.375ZM142.133 42.875L144.271 37.875L140.498 29.25H142.636L145.278 35.375L147.919 29.25H150.057L144.271 42.875H142.133ZM131.945 38.125C131.316 37.5 131.064 36.625 131.064 35.75C131.064 35 131.316 34.25 131.819 33.75C132.699 32.875 133.957 32.5 135.341 32.5C136.221 32.5 136.976 32.625 137.605 33C137.605 31.5 136.347 30.875 135.341 30.875C134.46 30.875 133.58 31.375 133.203 32.25L131.316 31.5C131.693 30.625 132.699 29 135.215 29C136.473 29 137.731 29.375 138.485 30.25C139.24 31.125 139.492 32.125 139.492 33.5V38.75H137.353V37.875C137.102 38.25 136.599 38.5 136.221 38.75C135.718 39 135.089 39.125 134.46 39.125C133.706 39 132.574 38.75 131.945 38.125ZM64.9033 33.625C64.9033 31.125 66.79 28.375 70.1861 28.375C73.4564 28.375 75.4689 31.125 75.4689 33.625C75.4689 36.125 73.5822 38.875 70.1861 38.875C66.79 38.875 64.9033 36.125 64.9033 33.625ZM76.2236 33.625C76.2236 31.125 78.1103 28.375 81.5064 28.375C84.7767 28.375 86.7892 31.125 86.7892 33.625C86.7892 36.125 84.9025 38.875 81.5064 38.875C78.2361 38.875 76.2236 36.125 76.2236 33.625ZM50.69 36.375C47.5455 33.25 47.6712 28.125 50.8158 24.875C52.4509 23.25 54.4634 22.5 56.6017 22.5C58.6142 22.5 60.6267 23.25 62.1361 24.75L60.6267 26.375C58.3627 24.125 54.715 24.25 52.5767 26.5C50.3127 28.875 50.3127 32.5 52.5767 34.875C54.8408 37.25 58.6142 37.375 60.8783 35C61.633 34.25 61.8845 33.25 62.0103 32.25H56.7275V30H64.1486C64.2744 30.5 64.2744 31.125 64.2744 31.75C64.2744 33.625 63.5197 35.5 62.2619 36.75C60.8783 38.125 58.8658 38.875 56.8533 38.875C54.5892 38.75 52.3252 38 50.69 36.375ZM103.895 37.25C102.009 35.25 102.009 31.875 103.895 29.75C105.782 27.75 108.927 27.75 110.688 29.75C111.317 30.375 111.694 31.25 112.071 32.125L105.153 35C105.531 35.875 106.411 36.625 107.669 36.625C108.801 36.625 109.556 36.25 110.31 35.125L112.197 36.375C111.945 36.625 111.694 36.875 111.568 37.125C109.43 39.25 105.782 39.25 103.895 37.25ZM116.977 38.75V24.875H121.505C124.146 24.875 126.285 26.75 126.285 29C126.285 31.25 124.398 33.125 122.008 33.125H119.241V38.625H116.977V38.75ZM127.542 38.75V24.875H129.681V38.75H127.542ZM99.1158 38.5V23H101.38V38.5H99.1158ZM137.479 34.625C136.976 34.25 136.221 34.125 135.467 34.125C133.957 34.125 133.077 34.875 133.077 35.75C133.077 36.625 133.957 37.125 134.838 37.125C136.095 37.125 137.479 36.125 137.479 34.625ZM73.0791 33.625C73.0791 32.125 72.0728 30.5 70.1861 30.5C68.2994 30.5 67.2931 32.125 67.2931 33.625C67.2931 35.125 68.2994 36.75 70.1861 36.75C71.947 36.75 73.0791 35.125 73.0791 33.625ZM84.3994 33.625C84.3994 32.125 83.3931 30.5 81.5064 30.5C79.6197 30.5 78.6134 32.125 78.6134 33.625C78.6134 35.125 79.6197 36.75 81.5064 36.75C83.3931 36.75 84.3994 35.125 84.3994 33.625ZM95.5939 34.5C95.5939 34.375 95.5939 34.25 95.7197 34.125C95.7197 34 95.7197 33.75 95.7197 33.625C95.7197 33.5 95.7197 33.25 95.7197 33.125V33C95.7197 32.875 95.5939 32.625 95.5939 32.5C95.2166 31.25 94.0845 30.375 92.9525 30.375C91.4431 30.375 90.1853 31.875 90.1853 33.5C90.1853 35.25 91.4431 36.625 93.0783 36.625C94.0845 36.75 95.0908 35.875 95.5939 34.5ZM104.776 33.375L109.43 31.375C108.927 30.5 108.172 30.25 107.543 30.25C105.656 30.375 104.524 32.375 104.776 33.375ZM124.02 29.125C124.02 27.875 123.014 27 121.631 27H119.115V31.375H121.756C123.014 31.375 124.02 30.375 124.02 29.125Z" fill="white"/>
<path fill-rule="evenodd" clip-rule="evenodd" d="M143.767 40.375H143.642V40.25H143.767H143.642V40.375H143.767Z" fill="white"/>
<path fill-rule="evenodd" clip-rule="evenodd" d="M144.019 40.375C144.019 40.25 144.019 40.25 144.019 40.375C143.894 40.25 143.894 40.25 144.019 40.375C143.894 40.375 143.894 40.375 144.019 40.375ZM144.019 40.25C144.019 40.375 144.019 40.375 144.019 40.25C144.019 40.375 143.894 40.375 144.019 40.25C143.894 40.25 144.019 40.25 144.019 40.25Z" fill="white"/>
<path fill-rule="evenodd" clip-rule="evenodd" d="M144.145 40.25H144.02H144.145V40.375V40.25Z" fill="white"/>
<path d="M48.9287 12.625C48.9287 10.375 50.5639 9 52.5764 9C53.96 9 54.8404 9.625 55.4694 10.5L54.4631 11.125C54.0858 10.625 53.4568 10.25 52.5764 10.25C51.1928 10.25 50.1865 11.25 50.1865 12.75C50.1865 14.25 51.1928 15.25 52.5764 15.25C53.3311 15.25 53.96 14.875 54.2115 14.625V13.5H52.199V12.375H55.5951V15C54.9662 15.75 53.96 16.25 52.7021 16.25C50.5639 16.25 48.9287 14.75 48.9287 12.625Z" fill="white"/>
<path d="M57.1045 16.125V9.125H61.8842V10.25H58.2365V12H61.7584V13.125H58.2365V15.125H61.8842V16.25L57.1045 16.125Z" fill="white"/>
<path d="M65.4063 16.125V10.25H63.2681V9.125H68.8024V10.25H66.6642V16.125H65.4063Z" fill="white"/>
<path d="M73.0791 16.125V9.125H74.3369V16.125H73.0791Z" fill="white"/>
<path d="M77.733 16.125V10.25H75.5947V9.125H81.1291V10.25H78.9908V16.125H77.733Z" fill="white"/>
<path d="M85.1538 12.625C85.1538 10.5 86.6632 9 88.8015 9C90.9398 9 92.4491 10.5 92.4491 12.625C92.4491 14.75 90.9398 16.25 88.8015 16.25C86.6632 16.25 85.1538 14.625 85.1538 12.625ZM91.0655 12.625C91.0655 11.125 90.1851 10.125 88.6757 10.125C87.2921 10.125 86.2859 11.25 86.2859 12.625C86.2859 14.125 87.1663 15.125 88.6757 15.125C90.1851 15.125 91.0655 14 91.0655 12.625Z" fill="white"/>
<path d="M98.7385 16.125L95.0908 11.125V16.125H93.833V9.125H95.0908L98.7385 14V9.125H99.9963V16.125H98.7385Z" fill="white"/>
<defs>
<linearGradient id="paint0_linear" x1="20.4614" y1="8.217" x2="27.4205" y2="36.9756" gradientUnits="userSpaceOnUse">
<stop stop-color="#006884"/>
<stop offset="1" stop-color="#8AD1D0"/>
</linearGradient>
<linearGradient id="paint1_linear" x1="11.8748" y1="12.3048" x2="31.0097" y2="22.7139" gradientUnits="userSpaceOnUse">
<stop stop-color="#24BBB6"/>
<stop offset="1" stop-color="#DBE692"/>
</linearGradient>
<linearGradient id="paint2_linear" x1="33.954" y1="29.5251" x2="33.954" y2="19.5896" gradientUnits="userSpaceOnUse">
<stop stop-color="#FCC072"/>
<stop offset="1" stop-color="#F58A5B"/>
</linearGradient>
<linearGradient id="paint3_linear" x1="15.5901" y1="41.5864" x2="30.6528" y2="26.161" gradientUnits="userSpaceOnUse">
<stop stop-color="#712B8F"/>
<stop offset="1" stop-color="#EA1D27"/>
</linearGradient>
</defs>
</svg>
