<svg width="67" height="70" viewBox="0 0 67 70" fill="none" xmlns="http://www.w3.org/2000/svg">
<path d="M55.597 0.037846L27.6007 8.66457C27.1509 8.80316 26.8991 9.28202 27.0384 9.73413L39.1963 49.1903C39.3356 49.6424 39.8133 49.8965 40.2631 49.7579L61.5513 43.1982C61.7673 43.1316 61.9478 42.9816 62.0534 42.781L66.6842 33.9722C66.7896 33.7717 66.8113 33.5371 66.7444 33.3199L56.6638 0.605415C56.5245 0.153308 56.0469 -0.100774 55.597 0.037846ZM61.5035 40.1543L60.2818 36.202L64.2167 34.9935L61.5035 40.1543ZM64.863 33.0029L58.9626 34.8151C58.9623 34.8152 58.9628 34.8151 58.9626 34.8151C58.7465 34.8817 58.5652 35.032 58.4597 35.2326C58.3543 35.4334 58.3326 35.6683 58.3998 35.8856L60.2318 41.8122L40.5731 47.8698L28.9196 10.0507L55.287 1.92596L64.863 33.0029Z" fill="white"/>
<path d="M44.2322 35.8779C42.184 36.509 41.0336 38.6971 41.6679 40.7556C42.3023 42.8142 44.4848 43.9754 46.5329 43.3443C48.5812 42.7131 49.7316 40.525 49.0973 38.4664C48.4631 36.4079 46.2806 35.2467 44.2322 35.8779ZM46.0285 41.7072C44.8784 42.0615 43.6531 41.4095 43.297 40.2537C42.9408 39.098 43.5867 37.8695 44.7367 37.5151C45.8867 37.1607 47.1121 37.8127 47.4683 38.9684C47.8244 40.1242 47.1786 41.3528 46.0285 41.7072Z" fill="white"/>
<path d="M55.792 35.6511L51.3121 37.0315C50.8623 37.1701 50.6105 37.649 50.7498 38.1011C50.8891 38.5532 51.3668 38.8073 51.8166 38.6687L56.2965 37.2882C56.7463 37.1496 56.9981 36.6708 56.8588 36.2187C56.7195 35.7666 56.2418 35.5125 55.792 35.6511Z" fill="white"/>
<path d="M36.3515 11.3459L33.9893 12.0737C33.5396 12.2123 33.2877 12.6912 33.4271 13.1433C33.5664 13.5954 34.044 13.8495 34.4938 13.7109L36.856 12.983C37.3058 12.8444 37.5576 12.3656 37.4183 11.9135C37.2789 11.4614 36.8013 11.2073 36.3515 11.3459Z" fill="white"/>
<path d="M52.5606 6.35134L45.4742 8.53493C45.0244 8.67352 44.7726 9.15238 44.9119 9.60449C45.0512 10.0566 45.5289 10.3107 45.9787 10.1721L53.0651 7.98849C53.5149 7.8499 53.7667 7.37104 53.6274 6.91893C53.4881 6.46682 53.0104 6.21274 52.5606 6.35134Z" fill="white"/>
<path d="M53.6455 9.87134L41.5904 13.586C41.1406 13.7245 40.8888 14.2034 41.0281 14.6555C41.1674 15.1076 41.6451 15.3617 42.0949 15.2231L54.1499 11.5085C54.5997 11.3699 54.8515 10.891 54.7122 10.4389C54.5729 9.98683 54.0952 9.73275 53.6455 9.87134Z" fill="white"/>
<path d="M55.6789 16.3256L36.7003 22.1736C36.2505 22.3122 35.9987 22.7911 36.138 23.2432C36.2773 23.6953 36.755 23.9493 37.2047 23.8108L56.1833 17.9628C56.6331 17.8242 56.8849 17.3453 56.7456 16.8932C56.6062 16.4411 56.1287 16.187 55.6789 16.3256Z" fill="white"/>
<path d="M56.5368 19.1088L37.5582 24.9568C37.1084 25.0954 36.8566 25.5743 36.9959 26.0264C37.1352 26.4785 37.6129 26.7326 38.0627 26.594L57.0412 20.746C57.491 20.6074 57.7428 20.1285 57.6035 19.6764C57.4642 19.2243 56.9866 18.9702 56.5368 19.1088Z" fill="white"/>
<path d="M57.4699 22.1376L38.4913 27.9856C38.0415 28.1242 37.7897 28.6031 37.929 29.0552C38.0683 29.5073 38.546 29.7614 38.9958 29.6228L57.9743 23.7748C58.4241 23.6362 58.6759 23.1573 58.5366 22.7052C58.3973 22.2531 57.9197 21.999 57.4699 22.1376Z" fill="white"/>
<path d="M58.3275 24.9208L57.8795 25.0589C57.4297 25.1974 57.1779 25.6763 57.3172 26.1284C57.4565 26.5805 57.9342 26.8346 58.3839 26.696L58.832 26.5579C59.2818 26.4194 59.5336 25.9405 59.3942 25.4884C59.2549 25.0363 58.7773 24.7822 58.3275 24.9208Z" fill="white"/>
<path d="M55.0285 25.9373L39.3487 30.7688C38.8989 30.9074 38.6471 31.3863 38.7864 31.8384C38.9257 32.2905 39.4034 32.5446 39.8532 32.406L55.5329 27.5744C55.9827 27.4359 56.2345 26.957 56.0952 26.5049C55.9559 26.0528 55.4782 25.7987 55.0285 25.9373Z" fill="white"/>
<path d="M50.0314 59.2039C48.5794 56.3022 45.3665 54.8274 42.2224 55.6108L35.4517 57.3029C35.1509 54.6937 33.6071 53.154 30.5152 52.3811L12.3987 48.3554C12.4551 47.9586 12.4989 47.5783 12.5303 47.2253C12.5574 46.9077 12.4405 46.5944 12.2086 46.375C10.4182 44.6786 3.25896 44.1313 1.10724 44.0018C0.810628 43.985 0.536926 44.0875 0.328051 44.2838C0.119078 44.4801 0 44.7559 0 45.0442V63.8459C0 64.4225 0.467986 64.8905 1.04457 64.8905H7.31181C7.76305 64.8905 8.16416 64.6001 8.30409 64.1697C8.33122 64.0862 8.47331 63.6475 8.68845 62.9685L23.6567 67.9572C25.4115 68.6195 26.6231 69.0038 27.9853 69.0038C30.1015 69.0038 32.5834 68.0763 38.04 65.8452L49.5299 60.6225C49.7868 60.5055 49.9874 60.2883 50.0814 60.0208C50.1755 59.7534 50.1588 59.4567 50.0314 59.2039ZM6.54926 62.8013H2.08699V46.1639C5.44417 46.4292 9.06869 47.0057 10.3848 47.645C9.83124 52.2202 7.3264 60.3466 6.54926 62.8013ZM37.2086 63.9252C28.4219 67.5268 28.119 67.4161 24.3565 65.9892L9.30264 60.9713C10.1612 58.128 11.3583 53.9123 12.0435 50.4173L30.0347 54.4158C32.3473 54.9924 33.279 55.9053 33.4064 57.8126L31.4009 58.3119C30.6572 58.5 29.8654 58.5208 29.1113 58.3683L20.0489 56.5551C19.4848 56.4402 18.9333 56.81 18.8205 57.3761C18.7077 57.9422 19.0733 58.4916 19.6395 58.6044L28.7039 60.4177C29.174 60.5117 29.6545 60.5577 30.1329 60.5577C30.7325 60.5577 31.3341 60.4845 31.9107 60.3383L34.7122 59.6384C34.7164 59.6384 34.7205 59.6384 34.7247 59.6384L42.728 57.6371C44.5601 57.1859 46.4131 57.8209 47.5642 59.2185L37.2086 63.9252Z" fill="white"/>
</svg>
