<?xml version="1.0" encoding="utf-8"?>
<svg version="1.1" id="Calque_1" xmlns="http://www.w3.org/2000/svg" xmlns:xlink="http://www.w3.org/1999/xlink" x="0px" y="0px"
	 viewBox="0 0 750 450" style="enable-background:new 0 0 750 450;" xml:space="preserve">
<style type="text/css">
	.st0{fill:#E8112D;}
	.st1{fill:#FFEF00;}
</style>
<rect class="st0" width="750" height="450"/>
<path id="r1" class="st1" d="M368.7,306c6.3,16.5-7.2,42,6.3,54c-4.5-18,10.5-37.5,6.3-54C377.1,289.5,362.4,289.5,368.7,306z"/>
<path id="r1_1_" class="st1" d="M294,218.7c-16.5,6.3-42-7.2-54,6.3c18-4.5,37.5,10.5,54,6.3S310.5,212.4,294,218.7z"/>
<path id="r1_2_" class="st1" d="M381.3,144c-6.3-16.5,7.2-42-6.3-54c4.5,18-10.5,37.5-6.3,54C372.9,160.5,387.6,160.5,381.3,144z"/>
<path id="r1_3_" class="st1" d="M456,231.3c16.5-6.3,42,7.2,54-6.3c-18,4.5-37.5-10.5-54-6.3S439.5,237.6,456,231.3z"/>
<path id="r1_4_" class="st1" d="M344,300.1c0.9,17.6-19.8,37.7-10.7,53.3c1.3-18.5,21.6-32.4,22.7-49.4S343.1,282.4,344,300.1z"/>
<path id="r1_5_" class="st1" d="M299.9,194c-17.6,0.9-37.7-19.8-53.3-10.7c18.5,1.3,32.4,21.6,49.4,22.7
	C313,207.1,317.6,193.1,299.9,194z"/>
<path id="r1_6_" class="st1" d="M406,149.9c-0.9-17.6,19.8-37.7,10.7-53.3c-1.3,18.5-21.6,32.4-22.7,49.4S406.9,167.6,406,149.9z"/>
<path id="r1_7_" class="st1" d="M450.1,256c17.6-0.9,37.7,19.8,53.3,10.7c-18.5-1.3-32.4-21.6-49.4-22.7
	C437,242.9,432.4,256.9,450.1,256z"/>
<path id="r1_8_" class="st1" d="M322.3,286.8c-4.6,17.1-30.5,29.7-26.6,47.4c6.9-17.2,30.5-24.2,36.8-40
	C338.8,278.4,326.9,269.8,322.3,286.8z"/>
<path id="r1_9_" class="st1" d="M313.2,172.3c-17.1-4.6-29.7-30.5-47.4-26.6c17.2,6.9,24.2,30.5,40,36.8S330.2,176.9,313.2,172.3z"
	/>
<path id="r1_10_" class="st1" d="M427.7,163.2c4.6-17.1,30.5-29.7,26.6-47.4c-6.9,17.2-30.5,24.2-36.8,40
	C411.2,171.6,423.1,180.2,427.7,163.2z"/>
<path id="r1_11_" class="st1" d="M436.8,277.7c17.1,4.6,29.7,30.5,47.4,26.6c-17.2-6.9-24.2-30.5-40-36.8
	C428.4,261.2,419.8,273.1,436.8,277.7z"/>
<path id="r1_12_" class="st1" d="M305.8,267.5c-9.6,14.8-38.2,18.9-40,36.8c11.9-14.2,36.5-13.5,47.4-26.6
	C324.1,264.6,315.4,252.7,305.8,267.5z"/>
<path id="r1_13_" class="st1" d="M332.5,155.8c-14.8-9.6-18.9-38.2-36.8-40c14.2,11.9,13.5,36.5,26.6,47.4
	C335.4,174.1,347.3,165.4,332.5,155.8z"/>
<path id="r1_14_" class="st1" d="M444.2,182.5c9.6-14.8,38.2-18.9,40-36.8c-11.9,14.2-36.5,13.5-47.4,26.6
	C425.9,185.4,434.6,197.3,444.2,182.5z"/>
<path id="r1_15_" class="st1" d="M417.5,294.2c14.8,9.6,18.9,38.2,36.8,40c-14.2-11.9-13.5-36.5-26.6-47.4
	C414.6,275.9,402.7,284.6,417.5,294.2z"/>
<path id="r1_16_" class="st1" d="M296,244c-13.7,11.1-42.2,6.1-49.4,22.7c15.7-9.8,38.9-1.6,53.3-10.7
	C314.3,246.9,309.8,232.9,296,244z"/>
<path id="r1_17_" class="st1" d="M356,146c-11.1-13.7-6.1-42.2-22.7-49.4c9.8,15.7,1.6,38.9,10.7,53.3S367.1,159.8,356,146z"/>
<path id="r1_18_" class="st1" d="M454,206c13.7-11.1,42.2-6.1,49.4-22.7c-15.7,9.8-38.9,1.6-53.3,10.7S440.2,217.1,454,206z"/>
<path id="r1_19_" class="st1" d="M394,304c11.1,13.7,6.1,42.2,22.7,49.4c-9.8-15.7-1.6-38.9-10.7-53.3S382.9,290.2,394,304z"/>
<path id="r1_20_" class="st1" d="M356.1,304c3.6,17.3-13.7,40.4-2.2,54.3c-1.6-18.5,16.2-35.4,14.7-52.3
	C367,289,352.5,286.7,356.1,304z"/>
<path id="r1_21_" class="st1" d="M296,206.1c-17.3,3.6-40.4-13.7-54.3-2.2c18.5-1.6,35.4,16.2,52.3,14.7
	C311,217,313.3,202.5,296,206.1z"/>
<path id="r1_22_" class="st1" d="M393.9,146c-3.6-17.3,13.7-40.4,2.2-54.3c1.6,18.5-16.2,35.4-14.7,52.3
	C383,161,397.5,163.3,393.9,146z"/>
<path id="r1_23_" class="st1" d="M454,243.9c17.3-3.6,40.4,13.7,54.3,2.2c-18.5,1.6-35.4-16.2-52.3-14.7
	C439,233,436.7,247.5,454,243.9z"/>
<path id="r1_24_" class="st1" d="M332.6,294.3c-1.9,17.6-25.5,34.2-18.9,51c4.2-18.1,26.4-28.6,30.1-45.3
	C347.6,283.4,334.5,276.7,332.6,294.3z"/>
<path id="r1_25_" class="st1" d="M305.7,182.6c-17.6-1.9-34.2-25.5-51-18.9c18.1,4.2,28.6,26.4,45.3,30.1
	C316.6,197.6,323.3,184.5,305.7,182.6z"/>
<path id="r1_26_" class="st1" d="M417.4,155.7c1.9-17.6,25.5-34.2,18.9-51c-4.2,18.1-26.4,28.6-30.1,45.3
	C402.4,166.6,415.5,173.3,417.4,155.7z"/>
<path id="r1_27_" class="st1" d="M444.3,267.4c17.6,1.9,34.2,25.5,51,18.9c-18.1-4.2-28.6-26.4-45.3-30.1
	C433.4,252.4,426.7,265.5,444.3,267.4z"/>
<path id="r1_28_" class="st1" d="M313.3,277.8c-7.2,16.1-34.8,24.6-33.7,42.6c9.5-15.9,33.9-19.1,42.6-33.7
	C330.9,272.1,320.5,261.7,313.3,277.8z"/>
<path id="r1_29_" class="st1" d="M322.2,163.3c-16.1-7.2-24.6-34.8-42.6-33.7c15.9,9.5,19.1,33.9,33.7,42.6
	C327.9,180.9,338.3,170.5,322.2,163.3z"/>
<path id="r1_30_" class="st1" d="M436.7,172.2c7.2-16.1,34.8-24.6,33.7-42.6c-9.5,15.9-33.9,19.1-42.6,33.7
	C419.1,177.9,429.5,188.3,436.7,172.2z"/>
<path id="r1_31_" class="st1" d="M427.8,286.7c16.1,7.2,24.6,34.8,42.6,33.7c-15.9-9.5-19.1-33.9-33.7-42.6
	C422.1,269.1,411.7,279.5,427.8,286.7z"/>
<path id="r1_32_" class="st1" d="M300,256.2c-11.8,13.1-40.7,12.7-45.3,30.1c14-12.2,38.2-7.7,51-18.9
	C318.5,256.2,311.8,243.1,300,256.2z"/>
<path id="r1_33_" class="st1" d="M343.8,150c-13.1-11.8-12.7-40.7-30.1-45.3c12.2,14,7.7,38.2,18.9,51S356.9,161.8,343.8,150z"/>
<path id="r1_34_" class="st1" d="M450,193.8c11.8-13.1,40.7-12.7,45.3-30.1c-14,12.2-38.2,7.7-51,18.9
	C431.5,193.8,438.2,206.9,450,193.8z"/>
<path id="r1_35_" class="st1" d="M406.2,300c13.1,11.8,12.7,40.7,30.1,45.3c-12.2-14-7.7-38.2-18.9-51
	C406.2,281.5,393.1,288.2,406.2,300z"/>
<path id="r1_36_" class="st1" d="M294,231.4c-15.3,8.8-42.6-0.5-52.3,14.7c17.1-7.3,38.7,4.5,54.3-2.2S309.3,222.6,294,231.4z"/>
<path id="r1_37_" class="st1" d="M368.6,144c-8.8-15.3,0.5-42.6-14.7-52.3c7.3,17.1-4.5,38.7,2.2,54.3S377.4,159.3,368.6,144z"/>
<path id="r1_38_" class="st1" d="M456,218.6c15.3-8.8,42.6,0.5,52.3-14.7c-17.1,7.3-38.7-4.5-54.3,2.2S440.7,227.4,456,218.6z"/>
<path id="r1_39_" class="st1" d="M381.4,306c8.8,15.3-0.5,42.6,14.7,52.3c-7.3-17.1,4.5-38.7-2.2-54.3S372.6,290.7,381.4,306z"/>
<circle class="st0" cx="375" cy="225" r="81"/>
<circle class="st1" cx="375" cy="220.5" r="67.5"/>
<path class="st0" d="M424.5,170.2c0.6,0,1.1,0,1.7,0c-1.7-1.6-3.5-3.1-5.3-4.5c-0.6,0-1.2,0-1.9,0c-55.4,0-101.6,39.9-111.3,92.5
	c2.3,4.7,5.1,9,8.3,13.1C320,214.8,367,170.2,424.5,170.2z"/>
<path class="st0" d="M428.1,173.1c-58.2,0-105.5,47-105.9,105.2c0.3,0.3,0.5,0.5,0.8,0.7h8.7c0-56,45.2-101.4,101.1-101.8
	c-1.2-1.4-2.4-2.8-3.7-4.1C428.8,173.1,428.4,173.1,428.1,173.1z"/>
<path class="st0" d="M337.9,279c0,3.9,0.2,7.8,0.7,11.6c3.1,1.7,6.4,3.3,9.8,4.5c-0.9-5.2-1.4-10.6-1.4-16.1
	c0-51.1,40.1-92.8,90.5-95.3c-0.9-1.3-1.7-2.6-2.7-3.8C381.2,181,337.9,225,337.9,279z"/>
<path class="st0" d="M235.7,217.7c0.7-1,1.4-2,2.2-3.1c-0.4,0.6-0.8,1.1-1.3,1.7C236.3,216.7,235.9,217.2,235.7,217.7z"/>
<path class="st0" d="M330.9,165.7c-0.6,0-1.2,0-1.9,0c-1.8,1.4-3.6,2.9-5.3,4.5c0.6,0,1.1,0,1.7,0c57.5,0,104.5,44.6,108.5,101
	c3.2-4,6-8.4,8.3-13.1C432.5,205.6,386.4,165.7,330.9,165.7z"/>
<path class="st0" d="M321.9,173.1c-0.3,0-0.7,0-1,0c-1.3,1.3-2.5,2.7-3.7,4.1c55.9,0.4,101.1,45.8,101.1,101.8h8.7
	c0.3-0.2,0.5-0.5,0.8-0.7C427.4,220.1,380.1,173.1,321.9,173.1z"/>
<path class="st0" d="M237.8,214.5c-0.4,0.6-0.8,1.2-1.2,1.8c0.4-0.6,0.8-1.1,1.3-1.7c0.4-0.5,0.8-1.1,1.2-1.6
	C238.6,213.5,238.2,214,237.8,214.5z"/>
<path class="st0" d="M315.1,179.9c-0.9,1.2-1.8,2.5-2.7,3.8c50.4,2.6,90.5,44.3,90.5,95.3c0,5.5-0.5,10.9-1.4,16.1
	c3.4-1.3,6.7-2.8,9.8-4.5c0.4-3.8,0.7-7.7,0.7-11.6C412.1,225,368.8,181,315.1,179.9z"/>
</svg>
