<svg width="96" height="36" viewBox="0 0 96 36" fill="none" xmlns="http://www.w3.org/2000/svg">
<rect width="95" height="34" fill="black" fill-opacity="0" transform="translate(0 1)"/>
<path d="M5.94086 17.9275C6.06649 17.9275 6.13829 17.982 6.13829 18.1092C6.13829 18.2363 6.06649 18.3089 5.94086 18.3089H0.19743C0.107689 18.3089 0.0538446 18.2908 0.0358964 18.2545C0.0179482 18.2181 0 18.1818 0 18.1273V8.79185C0 8.66472 0.0717929 8.61023 0.19743 8.61023C0.323068 8.61023 0.376912 8.66472 0.376912 8.79185V17.9275H5.94086Z" fill="white"/>
<path d="M7.50231 8.79185C7.50231 8.66472 7.57411 8.61023 7.69974 8.61023C7.82538 8.61023 7.87923 8.66472 7.87923 8.79185V18.1273C7.87923 18.2545 7.82538 18.3271 7.69974 18.3271C7.57411 18.3271 7.50231 18.2545 7.50231 18.1273V8.79185Z" fill="white"/>
<path d="M16.4405 8.61026C16.5841 8.61026 16.6559 8.66474 16.6559 8.79188C16.6559 8.91902 16.5841 8.99167 16.4405 8.99167H13.2099V18.1273C13.2099 18.2545 13.156 18.3271 13.0304 18.3271C12.9047 18.3271 12.8329 18.2545 12.8329 18.1273V8.9735H9.58432C9.45868 8.9735 9.40484 8.90085 9.40484 8.77372C9.40484 8.64658 9.45868 8.59209 9.58432 8.59209H16.4405V8.61026Z" fill="white"/>
<path d="M25.1096 8.70105C25.1275 8.6284 25.1634 8.59208 25.1993 8.57392C25.2352 8.55575 25.2891 8.55575 25.3429 8.59208C25.4685 8.6284 25.5044 8.70105 25.4685 8.82819L21.5738 18.2363C21.5379 18.309 21.484 18.3453 21.3943 18.3453C21.3584 18.3634 21.3046 18.3453 21.2687 18.3271C21.2328 18.309 21.2148 18.2726 21.1969 18.2L17.3201 8.84635C17.2662 8.71921 17.3021 8.64657 17.4277 8.61024C17.5354 8.55575 17.6252 8.57392 17.6611 8.68289L21.3943 17.6914L25.1096 8.70105Z" fill="white"/>
<path d="M26.8146 8.79185C26.8146 8.66472 26.8864 8.61023 27.012 8.61023C27.1377 8.61023 27.1915 8.66472 27.1915 8.79185V18.1273C27.1915 18.2545 27.1377 18.3271 27.012 18.3271C26.8864 18.3271 26.8146 18.2545 26.8146 18.1273V8.79185Z" fill="white"/>
<path d="M36.74 8.79188C36.74 8.66474 36.7938 8.61026 36.9194 8.61026C37.0451 8.61026 37.1169 8.66474 37.1169 8.79188V18.1637C37.0989 18.2545 37.0451 18.309 36.9374 18.309C36.8835 18.309 36.8476 18.2908 36.8117 18.2908C36.7758 18.2908 36.7579 18.2545 36.74 18.2363L29.6145 9.37308V18.1273C29.6145 18.2545 29.5607 18.3271 29.435 18.3271C29.3094 18.3271 29.2376 18.2545 29.2376 18.1273V8.79188C29.2376 8.73739 29.2556 8.68291 29.2735 8.64658C29.2914 8.61026 29.3273 8.59209 29.3991 8.59209C29.435 8.59209 29.4709 8.59209 29.4889 8.61026C29.5068 8.62842 29.5248 8.64658 29.5607 8.66474L36.74 17.528V8.79188Z" fill="white"/>
<path d="M45.6423 8.61023C45.7859 8.61023 45.8577 8.66472 45.8577 8.79185C45.8577 8.91899 45.7859 8.99164 45.6423 8.99164H39.5758V13.1145H44.5474C44.691 13.1145 44.7628 13.1872 44.7628 13.3143C44.7628 13.4414 44.691 13.4959 44.5474 13.4959H39.5758V17.9639H45.7859C45.9295 17.9639 46.0012 18.0183 46.0012 18.1455C46.0012 18.2726 45.9295 18.3453 45.7859 18.3453H39.3425C39.3245 18.3453 39.3245 18.3453 39.3066 18.3453C39.2886 18.3453 39.2886 18.3453 39.2707 18.3453V18.3271C39.2348 18.3089 39.2168 18.2363 39.2168 18.1636V8.79185C39.2168 8.73737 39.2168 8.70104 39.2348 8.68288L39.2527 8.66472C39.2707 8.64655 39.2886 8.62839 39.3066 8.62839C39.3425 8.61023 39.3784 8.61023 39.4322 8.61023C39.4143 8.61023 45.6423 8.61023 45.6423 8.61023Z" fill="white"/>
<path d="M54.6882 8.79188C54.6882 8.66474 54.742 8.61026 54.8676 8.61026C54.9933 8.61026 55.0651 8.66474 55.0651 8.79188V18.1637C55.0471 18.2545 54.9933 18.309 54.8856 18.309C54.8317 18.309 54.7958 18.2908 54.7599 18.2908C54.724 18.2908 54.7061 18.2545 54.6882 18.2363L47.5627 9.37308V18.1273C47.5627 18.2545 47.5089 18.3271 47.3832 18.3271C47.2576 18.3271 47.1858 18.2545 47.1858 18.1273V8.79188C47.1858 8.73739 47.2038 8.68291 47.2217 8.64658C47.2397 8.61026 47.2755 8.59209 47.3473 8.59209C47.3832 8.59209 47.4191 8.59209 47.4371 8.61026C47.455 8.62842 47.473 8.64658 47.5089 8.66474L54.6882 17.528V8.79188Z" fill="white"/>
<path d="M63.1239 8.68288C63.1957 8.61023 63.3033 8.59207 63.3931 8.66472C63.4649 8.75553 63.4828 8.84634 63.411 8.91899L59.965 12.6241L64.3982 17.9639C64.4879 18.0728 64.47 18.1636 64.3802 18.2363C64.2726 18.3089 64.1828 18.3089 64.129 18.2181L59.7317 12.8966L57.4881 15.294V18.1273C57.4881 18.2545 57.4343 18.3271 57.3086 18.3271C57.183 18.3271 57.1112 18.2545 57.1112 18.1273V8.79185C57.1112 8.66472 57.183 8.61023 57.3086 8.61023C57.4343 8.61023 57.4881 8.66472 57.4881 8.79185V14.7854L63.1239 8.68288Z" fill="white"/>
<path d="M65.4212 13.4778C65.4212 13.0237 65.475 12.5878 65.6007 12.1701C65.7263 11.7523 65.8699 11.3528 66.1032 10.9895C66.3186 10.6263 66.5699 10.2812 66.8571 9.99059C67.1442 9.69999 67.4852 9.42755 67.8442 9.22777C68.2032 9.00982 68.598 8.84636 69.0108 8.71922C69.4236 8.59208 69.8544 8.5376 70.3031 8.5376C70.7518 8.5376 71.1826 8.59208 71.5954 8.71922C72.0082 8.84636 72.403 8.99166 72.762 9.22777C73.121 9.44572 73.462 9.69999 73.7492 9.99059C74.0363 10.2812 74.3056 10.6263 74.503 10.9895C74.7184 11.3528 74.8799 11.7523 75.0055 12.1701C75.1312 12.5878 75.185 13.0237 75.185 13.4778C75.185 13.9318 75.1312 14.3677 75.0055 14.7855C74.8799 15.2032 74.7363 15.6028 74.503 15.966C74.2876 16.3293 74.0363 16.6743 73.7492 16.9649C73.462 17.2555 73.121 17.528 72.762 17.7278C72.403 17.9457 72.0082 18.1092 71.5954 18.2363C71.1826 18.3635 70.7518 18.4179 70.3031 18.4179C69.8544 18.4179 69.4236 18.3635 69.0108 18.2363C68.598 18.1092 68.2032 17.9639 67.8442 17.7278C67.4852 17.4917 67.1442 17.2555 66.8571 16.9649C66.5699 16.6743 66.3007 16.3293 66.1032 15.966C65.8878 15.6028 65.7263 15.2214 65.6007 14.7855C65.475 14.3677 65.4212 13.9318 65.4212 13.4778ZM65.7981 13.4778C65.7981 13.8955 65.852 14.2951 65.9596 14.6765C66.0673 15.0579 66.2109 15.4211 66.4083 15.7662C66.6058 16.0932 66.8391 16.4201 67.1083 16.6925C67.3776 16.9649 67.6827 17.2011 68.0237 17.4008C68.3468 17.6006 68.7237 17.7459 69.1006 17.8549C69.4775 17.9639 69.8724 18.0184 70.2852 18.0184C70.698 18.0184 71.0928 17.9639 71.4697 17.8549C71.8466 17.7459 72.2056 17.6006 72.5466 17.4008C72.8697 17.2011 73.1928 16.9649 73.462 16.6925C73.7312 16.4201 73.9825 16.1113 74.162 15.7662C74.3594 15.4393 74.503 15.0579 74.6107 14.6765C74.7184 14.2951 74.7722 13.8955 74.7722 13.4778C74.7722 13.06 74.7184 12.6605 74.6107 12.2791C74.503 11.8976 74.3594 11.5344 74.162 11.1893C73.9645 10.8624 73.7312 10.5355 73.462 10.263C73.1928 9.99059 72.8697 9.73632 72.5466 9.55469C72.2236 9.37307 71.8466 9.20961 71.4697 9.08247C71.0928 8.9735 70.698 8.91901 70.2852 8.91901C69.8724 8.91901 69.4775 8.9735 69.1006 9.08247C68.7237 9.19144 68.3647 9.33674 68.0237 9.55469C67.7006 9.75448 67.3776 9.99059 67.1083 10.263C66.8391 10.5355 66.6058 10.8624 66.4083 11.1893C66.2109 11.5162 66.0673 11.8976 65.9596 12.2791C65.852 12.6423 65.7981 13.0419 65.7981 13.4778Z" fill="white"/>
<path d="M94.7499 18C94.7499 27.2536 87.3376 34.75 78.2004 34.75V35.25C87.6194 35.25 95.2499 27.5241 95.2499 18H94.7499ZM78.2004 34.75C69.0631 34.75 61.6509 27.2536 61.6509 18H61.1509C61.1509 27.5241 68.7814 35.25 78.2004 35.25V34.75ZM61.6509 18C61.6509 8.74643 69.0631 1.25 78.2004 1.25V0.75C68.7814 0.75 61.1509 8.47589 61.1509 18H61.6509ZM78.2004 1.25C87.3376 1.25 94.7499 8.74643 94.7499 18H95.2499C95.2499 8.47589 87.6194 0.75 78.2004 0.75V1.25ZM78.9555 18C78.9555 27.2536 71.5432 34.75 62.406 34.75V35.25C71.8249 35.25 79.4555 27.5241 79.4555 18H78.9555ZM62.406 34.75C53.2687 34.75 45.8564 27.2536 45.8564 18H45.3564C45.3564 27.5241 52.987 35.25 62.406 35.25V34.75ZM45.8564 18C45.8564 8.74643 53.2687 1.25 62.406 1.25V0.75C52.987 0.75 45.3564 8.47589 45.3564 18H45.8564ZM62.406 1.25C71.5432 1.25 78.9555 8.74643 78.9555 18H79.4555C79.4555 8.47589 71.8249 0.75 62.406 0.75V1.25Z" fill="white"/>
<path d="M70.3033 3.27026L61.5625 18.5812H79.044L70.3033 3.27026Z" stroke="white" stroke-width="0.5" stroke-miterlimit="10"/>
<path d="M4.03857 27.1902V23.3398C4.03857 23.2672 4.07447 23.2308 4.12832 23.2308H5.40264C5.67186 23.2308 5.94108 23.2853 6.17441 23.3943C6.42568 23.5033 6.62311 23.6486 6.8026 23.8302C6.98208 24.0118 7.12566 24.2298 7.23335 24.4659C7.34104 24.7202 7.39489 24.9744 7.39489 25.265C7.39489 25.5375 7.34104 25.8099 7.23335 26.046C7.12566 26.3003 6.98208 26.5001 6.8026 26.6817C6.62311 26.8633 6.40774 27.0086 6.15646 27.1176C5.90519 27.2266 5.65391 27.281 5.36674 27.281H4.11037C4.07447 27.281 4.03857 27.2629 4.03857 27.1902ZM5.38469 26.9905C5.61802 26.9905 5.85134 26.936 6.04877 26.8452C6.26415 26.7543 6.44363 26.6272 6.58722 26.4637C6.74875 26.3003 6.85644 26.1187 6.94618 25.9189C7.03592 25.7009 7.07182 25.483 7.07182 25.2469C7.07182 24.9926 7.01798 24.7746 6.92823 24.5567C6.83849 24.3569 6.71286 24.1753 6.55132 24.0118C6.38979 23.8665 6.21031 23.7394 6.01288 23.6486C5.7975 23.5578 5.58212 23.5214 5.34879 23.5214H4.32575V26.9905H5.38469Z" fill="white"/>
<path d="M8.04099 27.1903V23.3398C8.04099 23.2672 8.07688 23.249 8.14868 23.249H8.25637C8.32816 23.249 8.36406 23.2853 8.36406 23.3398V27.1903C8.36406 27.2629 8.32816 27.2811 8.25637 27.2811H8.14868C8.07688 27.2811 8.04099 27.2629 8.04099 27.1903Z" fill="white"/>
<path d="M11.0922 27.0268C11.2717 27.0268 11.4512 26.9905 11.6486 26.936C11.8281 26.8633 11.9896 26.7907 12.0973 26.6999V25.592C12.0973 25.5375 12.1332 25.5011 12.1871 25.5011H12.3306C12.3845 25.5011 12.4204 25.5375 12.4204 25.592V26.7907C12.4204 26.8452 12.4024 26.8633 12.3845 26.8815C12.205 27.0086 12.0255 27.1176 11.8101 27.2084C11.5948 27.2992 11.3614 27.3355 11.1281 27.3355C10.8409 27.3355 10.5717 27.2811 10.3204 27.1721C10.0692 27.0631 9.85379 26.9178 9.65636 26.7362C9.47688 26.5546 9.33329 26.3366 9.2256 26.0823C9.11791 25.8281 9.06407 25.5556 9.06407 25.265C9.06407 24.9744 9.11791 24.702 9.2256 24.4477C9.33329 24.1934 9.47688 23.9755 9.67431 23.7939C9.85379 23.6123 10.0871 23.467 10.3384 23.358C10.5897 23.249 10.8589 23.1945 11.1461 23.1945C11.3973 23.1945 11.6127 23.2308 11.8281 23.3217C12.0435 23.3943 12.223 23.5214 12.4024 23.6486C12.4383 23.6849 12.4563 23.7031 12.4563 23.7212C12.4563 23.7394 12.4383 23.7576 12.4383 23.7576L12.3486 23.8847C12.3486 23.8847 12.3306 23.9029 12.2947 23.921C12.2768 23.9392 12.2409 23.921 12.205 23.9029C12.0614 23.7939 11.8819 23.7031 11.7204 23.6304C11.5409 23.5578 11.3614 23.5214 11.1461 23.5214C10.9127 23.5214 10.6794 23.5759 10.464 23.6667C10.2487 23.7576 10.0692 23.8847 9.90764 24.0482C9.7461 24.2116 9.62046 24.3932 9.53072 24.6112C9.44098 24.8291 9.38714 25.0471 9.38714 25.3014C9.38714 25.5375 9.44098 25.7736 9.53072 25.9915C9.62046 26.2095 9.7461 26.3911 9.90764 26.5546C10.0692 26.718 10.2487 26.8452 10.464 26.936C10.6256 26.9723 10.8589 27.0268 11.0922 27.0268Z" fill="white"/>
<path d="M13.1383 27.1903V23.3398C13.1383 23.2672 13.1742 23.249 13.246 23.249H13.3537C13.4255 23.249 13.4614 23.2853 13.4614 23.3398V27.1903C13.4614 27.2629 13.4255 27.2811 13.3537 27.2811H13.246C13.1742 27.2811 13.1383 27.2629 13.1383 27.1903Z" fill="white"/>
<path d="M14.0896 23.2308H16.9075C16.9434 23.2308 16.9613 23.2308 16.9793 23.249C16.9972 23.2672 17.0152 23.2853 17.0152 23.3216V23.4488C17.0152 23.5214 16.9793 23.5396 16.9075 23.5396H15.6511V27.1721C15.6511 27.2447 15.6152 27.2629 15.5614 27.2629H15.4537C15.3819 27.2629 15.3639 27.2266 15.3639 27.1721V23.5396H14.1076C14.0358 23.5396 14.0178 23.5033 14.0178 23.4306V23.3216C13.9999 23.2672 14.0358 23.2308 14.0896 23.2308Z" fill="white"/>
<path d="M18.4868 23.3035L20.0663 27.1721C20.0842 27.2084 20.0842 27.2447 20.0663 27.2629C20.0483 27.281 20.0304 27.2992 19.9945 27.2992H19.833C19.7971 27.2992 19.7612 27.281 19.7432 27.2266L19.3663 26.2821H17.3023L16.9253 27.2266C16.9074 27.281 16.8715 27.2992 16.8356 27.2992H16.6741C16.6561 27.2992 16.6202 27.281 16.6023 27.2629C16.5843 27.2447 16.5843 27.2084 16.6023 27.1721L18.1997 23.3035C18.2176 23.249 18.2535 23.2308 18.2894 23.2308H18.3971C18.4509 23.2308 18.4689 23.2672 18.4868 23.3035ZM18.3433 23.7394L17.4458 25.9552H19.2586L18.3433 23.7394Z" fill="white"/>
<path d="M20.7304 27.2084V23.3398C20.7304 23.2853 20.7663 23.249 20.8201 23.249H20.9637C21.0176 23.249 21.0535 23.2853 21.0535 23.3398V26.9905H23.1893C23.2611 26.9905 23.279 27.0268 23.279 27.0813V27.2266C23.279 27.2811 23.2431 27.3174 23.1893 27.3174H20.8201C20.7483 27.2811 20.7304 27.2629 20.7304 27.2084Z" fill="white"/>
<path d="M27.1379 23.3035L28.7173 27.1721C28.7353 27.2084 28.7353 27.2447 28.7173 27.2629C28.6994 27.281 28.6815 27.2992 28.6456 27.2992H28.484C28.4481 27.2992 28.4122 27.281 28.3943 27.2266L28.0174 26.2821H25.9533L25.5764 27.2266C25.5585 27.281 25.5226 27.2992 25.4867 27.2992H25.3251C25.3072 27.2992 25.2713 27.281 25.2533 27.2629C25.2354 27.2447 25.2354 27.2084 25.2533 27.1721L26.8507 23.3035C26.8687 23.249 26.9046 23.2308 26.9405 23.2308H27.0482C27.0841 23.2308 27.12 23.2672 27.1379 23.3035ZM26.9943 23.7394L26.0969 25.9552H27.9097L26.9943 23.7394Z" fill="white"/>
<path d="M31.8045 23.5578H29.6866V27.2084C29.6866 27.2266 29.6866 27.2447 29.6686 27.2629C29.6507 27.281 29.6327 27.2992 29.6148 27.2992H29.4712C29.4174 27.2992 29.3815 27.2629 29.3815 27.2084V23.3216C29.3815 23.2672 29.4174 23.2308 29.4712 23.2308H31.8224C31.8763 23.2308 31.9122 23.2672 31.9122 23.3216V23.4851C31.8942 23.5214 31.8583 23.5578 31.8045 23.5578Z" fill="white"/>
<path d="M32.4327 27.2084V23.3398C32.4327 23.2853 32.4686 23.249 32.5224 23.249H35.1428C35.1967 23.249 35.2326 23.2672 35.2326 23.3217V23.467C35.2326 23.5215 35.1967 23.5578 35.1428 23.5578H32.7378V25.0289H34.6582C34.73 25.0289 34.7659 25.0653 34.7659 25.1197V25.265C34.7659 25.3195 34.73 25.3559 34.6582 25.3559H32.7378V27.0086H35.1787C35.2326 27.0086 35.2685 27.0268 35.2685 27.0813V27.2447C35.2685 27.2992 35.2326 27.3174 35.1787 27.3174H32.5224C32.4686 27.2811 32.4327 27.2629 32.4327 27.2084Z" fill="white"/>
<path d="M38.8401 27.1903V25.374H36.2017V27.1903C36.2017 27.2448 36.1658 27.2811 36.112 27.2811H35.9684C35.9146 27.2811 35.8787 27.2448 35.8787 27.1903V23.3398C35.8787 23.3035 35.8787 23.2853 35.8966 23.2672C35.9146 23.249 35.9325 23.2309 35.9684 23.2309H36.112C36.1658 23.2309 36.2017 23.2672 36.2017 23.3217V25.0471H38.8401V23.3217C38.8401 23.2853 38.8401 23.2672 38.8581 23.249C38.876 23.2309 38.894 23.2127 38.9299 23.2127H39.0734C39.1273 23.2127 39.1632 23.249 39.1632 23.3035V27.1721C39.1632 27.2266 39.1273 27.2629 39.0734 27.2629H38.9299C38.876 27.2811 38.8401 27.2629 38.8401 27.1903Z" fill="white"/>
<path d="M39.8452 23.2308H42.6631C42.699 23.2308 42.717 23.2308 42.7349 23.249C42.7528 23.2672 42.7708 23.2853 42.7708 23.3216V23.4488C42.7708 23.5214 42.7349 23.5396 42.6631 23.5396H41.4067V27.1721C41.4067 27.2447 41.3708 27.2629 41.317 27.2629H41.2093C41.1375 27.2629 41.1196 27.2266 41.1196 27.1721V23.5396H39.8632C39.7914 23.5396 39.7734 23.5033 39.7734 23.4306V23.3216C39.7555 23.2672 39.7734 23.2308 39.8452 23.2308Z" fill="white"/>
<path d="M45.822 26.6454C45.8399 26.6272 45.8579 26.6091 45.8938 26.6091C45.9117 26.6091 45.9476 26.6272 45.9655 26.6454L46.0553 26.7725C46.0732 26.8089 46.0732 26.827 46.0732 26.8452C46.0732 26.8634 46.0553 26.8815 46.0194 26.8997C45.8579 27.045 45.6604 27.1539 45.463 27.2266C45.2476 27.2992 45.0322 27.3537 44.781 27.3537C44.4938 27.3537 44.2246 27.2992 43.9733 27.1903C43.722 27.0813 43.5066 26.936 43.3092 26.7362C43.1297 26.5546 42.9682 26.3185 42.8605 26.0642C42.7528 25.8099 42.699 25.5375 42.699 25.2469C42.699 24.9563 42.7528 24.6839 42.8605 24.4296C42.9682 24.1753 43.1118 23.9574 43.3092 23.7757C43.4887 23.5941 43.722 23.4488 43.9733 23.3398C44.2246 23.2309 44.4938 23.1764 44.781 23.1764C45.0322 23.1764 45.2656 23.2127 45.463 23.3035C45.6784 23.3762 45.8579 23.4851 46.0373 23.6304C46.0732 23.6668 46.0912 23.6849 46.0912 23.7031C46.0912 23.7213 46.0912 23.7394 46.0732 23.7576L45.9835 23.8847C45.9835 23.8847 45.9656 23.9029 45.9297 23.921C45.9117 23.9392 45.8758 23.921 45.8399 23.9029C45.6963 23.7939 45.5168 23.6849 45.3553 23.6123C45.1758 23.5396 44.9784 23.5033 44.781 23.5033C44.5476 23.5033 44.3143 23.5578 44.0989 23.6486C43.8836 23.7394 43.7041 23.8666 43.5425 24.03C43.381 24.1935 43.2554 24.3751 43.1656 24.593C43.0759 24.811 43.022 25.0289 43.022 25.2832C43.022 25.5193 43.0759 25.7554 43.1656 25.9734C43.2554 26.1913 43.381 26.373 43.5425 26.5364C43.7041 26.6999 43.8836 26.827 44.0989 26.9178C44.3143 27.0086 44.5297 27.0631 44.781 27.0631C44.9784 27.0631 45.1758 27.0268 45.3553 26.9542C45.5168 26.8633 45.6784 26.7725 45.822 26.6454Z" fill="white"/>
<path d="M46.4681 23.2308H49.286C49.3219 23.2308 49.3398 23.2308 49.3578 23.249C49.3757 23.2672 49.3937 23.2853 49.3937 23.3216V23.4488C49.3937 23.5214 49.3578 23.5396 49.286 23.5396H48.0296V27.1721C48.0296 27.2447 47.9937 27.2629 47.9399 27.2629H47.8322C47.7604 27.2629 47.7424 27.2266 47.7424 27.1721V23.5396H46.4861C46.4143 23.5396 46.3963 23.5033 46.3963 23.4306V23.3216C46.3784 23.2672 46.3963 23.2308 46.4681 23.2308Z" fill="white"/>
<path d="M50.0758 23.2308H51.6552C51.7988 23.2308 51.9424 23.249 52.068 23.3035C52.1936 23.358 52.3013 23.4306 52.409 23.5214C52.4988 23.6122 52.5885 23.7212 52.6423 23.8484C52.6962 23.9755 52.7321 24.1026 52.7321 24.2661C52.7321 24.4477 52.6962 24.6112 52.6064 24.7565C52.5167 24.9018 52.409 25.0289 52.2654 25.1197C52.3552 25.1561 52.4449 25.2105 52.5346 25.2832C52.6244 25.3558 52.6962 25.4285 52.75 25.5193C52.8039 25.6101 52.8577 25.7009 52.8936 25.8099C52.9295 25.9189 52.9475 26.0278 52.9475 26.1368C52.9475 26.2821 52.9116 26.4274 52.8577 26.5546C52.8039 26.6817 52.7321 26.8088 52.6423 26.9178C52.5526 27.0268 52.427 27.0994 52.3013 27.1539C52.1757 27.2084 52.0321 27.2447 51.8885 27.2447H50.0937C50.0398 27.2447 50.004 27.2266 50.004 27.1721V23.3035C49.986 23.2672 50.0219 23.2308 50.0758 23.2308ZM52.409 24.2843C52.409 24.1753 52.3911 24.0845 52.3552 23.9937C52.3193 23.9028 52.2654 23.8302 52.1936 23.7575C52.1218 23.6849 52.0501 23.6486 51.9603 23.6122C51.8706 23.5759 51.7629 23.5578 51.6552 23.5578H50.2911V25.0471H51.6552C51.7629 25.0471 51.8526 25.0289 51.9424 24.9926C52.0321 24.9563 52.1218 24.9018 52.1757 24.8291C52.2475 24.7565 52.3013 24.6838 52.3372 24.593C52.3911 24.484 52.409 24.3932 52.409 24.2843ZM52.6064 26.1731C52.6064 26.0642 52.5885 25.9734 52.5526 25.8644C52.5167 25.7554 52.4629 25.6828 52.3911 25.5919C52.3193 25.5193 52.2475 25.4466 52.1577 25.4103C52.068 25.3558 51.9603 25.3377 51.8706 25.3377H50.3091V26.9723H51.8706C51.9783 26.9723 52.068 26.9541 52.1577 26.8996C52.2475 26.8633 52.3193 26.7907 52.3911 26.718C52.4629 26.6454 52.5167 26.5546 52.5526 26.4637C52.5885 26.3911 52.6064 26.2821 52.6064 26.1731Z" fill="white"/>
<path d="M53.4499 25.265C53.4499 24.9744 53.5038 24.702 53.6115 24.4477C53.7192 24.1935 53.8627 23.9755 54.0422 23.7757C54.2217 23.5941 54.4371 23.4306 54.6884 23.3217C54.9396 23.2127 55.2089 23.1582 55.496 23.1582C55.7832 23.1582 56.0345 23.2127 56.2857 23.3217C56.537 23.4306 56.7524 23.5759 56.9319 23.7757C57.1114 23.9573 57.2549 24.1935 57.3626 24.4477C57.4703 24.702 57.5242 24.9744 57.5242 25.265C57.5242 25.5556 57.4703 25.8281 57.3626 26.0642C57.2549 26.3185 57.1114 26.5364 56.9319 26.718C56.7524 26.8997 56.537 27.045 56.2857 27.1539C56.0345 27.2629 55.7652 27.3174 55.4781 27.3174C55.1909 27.3174 54.9217 27.2629 54.6884 27.1539C54.4371 27.045 54.2217 26.8997 54.0422 26.718C53.8627 26.5364 53.7192 26.3185 53.6115 26.0642C53.5038 25.8281 53.4499 25.5556 53.4499 25.265ZM53.7551 25.265C53.7551 25.5012 53.8089 25.7373 53.8986 25.9552C53.9884 26.1732 54.114 26.3548 54.2756 26.5182C54.4371 26.6817 54.6166 26.8088 54.8319 26.8997C55.0473 26.9905 55.2627 27.045 55.514 27.045C55.7473 27.045 55.9806 26.9905 56.196 26.8997C56.4114 26.8088 56.5909 26.6817 56.7524 26.5182C56.9139 26.3548 57.0396 26.1732 57.1293 25.9552C57.2191 25.7373 57.2729 25.5193 57.2729 25.265C57.2729 25.0289 57.2191 24.7928 57.1293 24.5749C57.0396 24.3569 56.9139 24.1753 56.7524 24.0118C56.5909 23.8484 56.4114 23.7212 56.196 23.6304C55.9806 23.5396 55.7653 23.4851 55.514 23.4851C55.2807 23.4851 55.0473 23.5396 54.8319 23.6304C54.6166 23.7212 54.4371 23.8484 54.2756 24.0118C54.114 24.1753 53.9884 24.3569 53.8986 24.5749C53.8089 24.7928 53.7551 25.0289 53.7551 25.265Z" fill="white"/>
</svg>
