<svg width="39" height="31" viewBox="0 0 39 31" fill="none" xmlns="http://www.w3.org/2000/svg">
<path d="M37.8663 16.8858L32.1602 1.46198C31.9529 0.901528 31.5397 0.455435 30.9968 0.205826C30.4539 -0.0437833 29.8464 -0.0672212 29.2859 0.1402L1.46204 10.4337C0.901586 10.6411 0.455492 11.0543 0.205786 11.597C-0.0438235 12.1399 -0.0671631 12.7475 0.140161 13.3079L5.84631 28.7317C6.05353 29.2921 6.46672 29.7382 7.00969 29.9879C7.30754 30.1249 7.62482 30.1937 7.94318 30.1937C8.20509 30.1937 8.46759 30.1472 8.72062 30.0536L36.5446 19.76H36.5447C37.7013 19.332 38.2942 18.0426 37.8663 16.8858ZM27.7565 3.09117L19.126 15.4294L4.54328 11.679L27.7565 3.09117ZM7.54094 26.8658L2.59143 13.4869L14.0545 16.4353L7.54094 26.8658ZM9.96466 27.2081L16.3272 17.0197L19.3195 17.7894C19.4124 17.8129 19.5064 17.8252 19.5981 17.8252C19.9582 17.8252 20.3027 17.6507 20.5152 17.3476L22.286 14.814L33.7478 18.4095L9.96466 27.2081ZM23.6317 12.8919L30.4152 3.19225L35.3667 16.573L23.6317 12.8919Z" transform="translate(0.994629)" fill="white"/>
</svg>
